<svg id="kity_svg_6" xmlns="http://www.w3.org/2000/svg" xmlns:xlink="http://www.w3.org/1999/xlink" version="1.1" width="1915" height="473" style="background: rgb(251, 251, 251) none repeat scroll 0% 0%; visibility: visible;" viewBox="0 0 1915 473"><defs id="kity_defs_7"><linearGradient id="kity_linearGradient_17" x1="0" y1="0" x2="0" y2="1"><stop id="kity_stop_18" offset="0" stop-color="rgb(255, 255, 255)"></stop><stop id="kity_stop_19" offset="1" stop-color="rgb(204, 204, 204)"></stop></linearGradient><marker id="kity_marker_2" orient="auto" refX="6" refY="0" viewBox="-7 -7 14 14" markerWidth="7" markerHeight="7" markerUnits="userSpaceOnUse"><path id="kity_path_3" fill="rgb(115, 161, 191)" stroke="none" d="M6,0A6,6,0,1,1,-6,0A6,6,0,1,1,6,0"></path></marker></defs><g id="kity_g_8"><g id="minder1" text-rendering="optimize-speed"><g id="minder_connect_group1"><path id="kity_path_31" fill="none" stroke="rgb(115, 161, 191)" stroke-width="1" d="M745.5,61.5v30h266V108.5"></path><path id="kity_path_33" fill="none" stroke="rgb(115, 161, 191)" stroke-width="1" d="M745.5,61.5v30h-281.5V111.5"></path><path id="kity_path_35" fill="none" stroke="rgb(115, 161, 191)" stroke-width="1" d="M464.5,137.5v20h-250V172.5"></path><path id="kity_path_37" fill="none" stroke="rgb(115, 161, 191)" stroke-width="1" d="M214.5,194.5v15h-101.5V224.5"></path><path id="kity_path_39" fill="none" stroke="rgb(115, 161, 191)" stroke-width="1" d="M112.5,246.5v15h-80V276.5"></path><path id="kity_path_41" fill="none" stroke="rgb(115, 161, 191)" stroke-width="1" d="M112.5,246.5v15h32.5V276.5"></path><path id="kity_path_43" fill="none" stroke="rgb(115, 161, 191)" stroke-width="1" d="M145.5,298.5v15h-38V328.5"></path><path id="kity_path_45" fill="none" stroke="rgb(115, 161, 191)" stroke-width="1" d="M145.5,298.5v15h35V328.5"></path><path id="kity_path_47" fill="none" stroke="none" display="none"></path><path id="kity_path_49" fill="none" stroke="none" display="none"></path><path id="kity_path_51" fill="none" stroke="rgb(115, 161, 191)" stroke-width="1" d="M214.5,194.5v15h46V224.5"></path><path id="kity_path_53" fill="none" stroke="rgb(115, 161, 191)" stroke-width="1" d="M214.5,194.5v15h126V224.5"></path><path id="kity_path_55" fill="none" stroke="rgb(115, 161, 191)" stroke-width="1" d="M464.5,137.5v20h248.5V172.5"></path><path id="kity_path_57" fill="none" stroke="rgb(115, 161, 191)" stroke-width="1" d="M712.5,194.5v15h-293V224.5"></path><path id="kity_path_59" fill="none" stroke="rgb(115, 161, 191)" stroke-width="1" d="M712.5,194.5v15h203V224.5"></path><path id="kity_path_61" fill="none" stroke="rgb(115, 161, 191)" stroke-width="1" d="M915.5,246.5v15h-178V276.5"></path><path id="kity_path_63" fill="none" stroke="rgb(115, 161, 191)" stroke-width="1" d="M737.5,298.5v15h-149V328.5"></path><path id="kity_path_65" fill="none" stroke="rgb(115, 161, 191)" stroke-width="1" d="M588.5,350.5v15h-99V380.5"></path><path id="kity_path_67" fill="none" stroke="rgb(115, 161, 191)" stroke-width="1" d="M588.5,350.5v15h59.5V380.5"></path><path id="kity_path_69" fill="none" stroke="rgb(115, 161, 191)" stroke-width="1" d="M648.5,402.5v15h-57.5V432.5"></path><path id="kity_path_71" fill="none" stroke="none" display="none"></path><path id="kity_path_73" fill="none" stroke="none" display="none"></path><path id="kity_path_75" fill="none" stroke="rgb(115, 161, 191)" stroke-width="1" d="M648.5,402.5v15h66.5V432.5"></path><path id="kity_path_77" fill="none" stroke="none" display="none"></path><path id="kity_path_79" fill="none" stroke="none" display="none"></path><path id="kity_path_81" fill="none" stroke="rgb(115, 161, 191)" stroke-width="1" d="M737.5,298.5v15h66.5V328.5"></path><path id="kity_path_83" fill="none" stroke="rgb(115, 161, 191)" stroke-width="1" d="M737.5,298.5v15h164V328.5"></path><path id="kity_path_85" fill="none" stroke="rgb(115, 161, 191)" stroke-width="1" d="M915.5,246.5v15h86.5V276.5"></path><path id="kity_path_87" fill="none" stroke="rgb(115, 161, 191)" stroke-width="1" d="M915.5,246.5v15h214.5V276.5"></path><path id="kity_path_89" fill="none" stroke="rgb(115, 161, 191)" stroke-width="1" d="M1130.5,298.5v15h-59V328.5"></path><path id="kity_path_91" fill="none" stroke="rgb(115, 161, 191)" stroke-width="1" d="M1130.5,298.5v15h34.5V328.5"></path><path id="kity_path_93" fill="none" stroke="none" display="none"></path><path id="kity_path_95" fill="none" stroke="none" display="none"></path><path id="kity_path_97" fill="none" stroke="none" display="none"></path><path id="kity_path_99" fill="none" stroke="none" display="none"></path><path id="kity_path_101" fill="none" stroke="none" display="none"></path><path id="kity_path_103" fill="none" stroke="none" display="none"></path><path id="kity_path_105" fill="none" stroke="rgb(115, 161, 191)" stroke-width="1" d="M745.5,61.5v30h711V111.5"></path><path id="kity_path_107" fill="none" stroke="rgb(115, 161, 191)" stroke-width="1" d="M1456.5,137.5v20h-132.5V172.5"></path><path id="kity_path_109" fill="none" stroke="rgb(115, 161, 191)" stroke-width="1" d="M1324.5,194.5v15h-68.5V224.5"></path><path id="kity_path_111" fill="none" stroke="rgb(115, 161, 191)" stroke-width="1" d="M1324.5,194.5v15h0V224.5"></path><path id="kity_path_113" fill="none" stroke="rgb(115, 161, 191)" stroke-width="1" d="M1324.5,194.5v15h68.5V224.5"></path><path id="kity_path_115" fill="none" stroke="rgb(115, 161, 191)" stroke-width="1" d="M1456.5,137.5v20h147V172.5"></path><path id="kity_path_117" fill="none" stroke="rgb(115, 161, 191)" stroke-width="1" d="M1603.5,194.5v15h-143V224.5"></path><path id="kity_path_119" fill="none" stroke="rgb(115, 161, 191)" stroke-width="1" d="M1603.5,194.5v15h101V224.5"></path><path id="kity_path_121" fill="none" stroke="rgb(115, 161, 191)" stroke-width="1" d="M1704.5,246.5v15h-116V276.5"></path><path id="kity_path_123" fill="none" stroke="rgb(115, 161, 191)" stroke-width="1" d="M1588.5,298.5v15h-59V328.5"></path><path id="kity_path_125" fill="none" stroke="rgb(115, 161, 191)" stroke-width="1" d="M1588.5,298.5v15h34V328.5"></path><path id="kity_path_127" fill="none" stroke="none" display="none"></path><path id="kity_path_129" fill="none" stroke="none" display="none"></path><path id="kity_path_131" fill="none" stroke="none" display="none"></path><path id="kity_path_133" fill="none" stroke="none" display="none"></path><path id="kity_path_135" fill="none" stroke="none" display="none"></path><path id="kity_path_137" fill="none" stroke="none" display="none"></path><path id="kity_path_139" fill="none" stroke="rgb(115, 161, 191)" stroke-width="1" d="M1704.5,246.5v15h9.5V276.5"></path><path id="kity_path_141" fill="none" stroke="rgb(115, 161, 191)" stroke-width="1" d="M1704.5,246.5v15h126V276.5"></path><path id="kity_path_143" fill="none" stroke="rgb(115, 161, 191)" stroke-width="1" d="M1830.5,298.5v15h-49.5V328.5"></path><path id="kity_path_145" fill="none" stroke="rgb(115, 161, 191)" stroke-width="1" d="M1830.5,298.5v15h35V328.5"></path><path id="kity_path_147" fill="none" stroke="none" display="none"></path><path id="kity_path_149" fill="none" stroke="none" display="none"></path></g><g id="minder_node1"><path id="node_outline1" fill="rgb(115, 161, 191)" stroke="rgb(115, 161, 191)" d="M463.5,21.5h564a5,5,0,0,1,5,5v30a5,5,0,0,1,-5,5h-564a5,5,0,0,1,-5,-5v-30a5,5,0,0,1,5,-5z" stroke-width="3"></path><g id="node_text1" fill="white"><text id="kity_text_22" text-rendering="inherit" font-size="16" dy=".8em" y="30.939998626708984" x="482.5">(!(~+[])+{})[--[~+""][+[]]*[~+[]] + ~~!+[]]+({}+[])[[~!+[]]*~+[]] = "sb"</text></g></g><g id="kity_g_12"><path id="kity_path_13" fill="none" stroke="none" d="M482.5,41.5h0v0h0z"></path></g><g id="kity_g_14"><path id="kity_path_15" fill="none" stroke="none" d="M482.5,41.5h0v0h0z"></path><path id="kity_path_16" fill="none" stroke="none"></path></g><g id="minder_node2"><g id="node_expander1" style="cursor: pointer;" display="none"><path id="kity_path_331" fill="white" stroke="gray" d="M1017.5,101.5A6,6,0,1,1,1005.5,101.5A6,6,0,1,1,1017.5,101.5"></path><path id="kity_path_332" fill="none" stroke="gray"></path></g><path id="node_outline2" fill="rgb(238, 243, 246)" stroke="rgb(115, 161, 191)" d="M989.5,108.5h44a3,3,0,0,1,3,3v20a3,3,0,0,1,-3,3h-44a3,3,0,0,1,-3,-3v-20a3,3,0,0,1,3,-3z" stroke-width="1"></path><g id="node_text2" fill="black"><text id="kity_text_151" text-rendering="inherit" font-size="14" dy=".8em" y="112.2599983215332" x="1006.5">+</text></g></g><g id="minder_node3"><g id="node_expander37" style="cursor: pointer;"><path id="kity_path_439" fill="white" stroke="gray" d="M470,104.5A6,6,0,1,1,458,104.5A6,6,0,1,1,470,104.5"></path><path id="kity_path_440" fill="none" stroke="gray" d="M459.5,104.5L468.5,104.5"></path></g><path id="node_outline38" fill="rgb(238, 243, 246)" stroke="rgb(115, 161, 191)" d="M292.5,111.5h343a3,3,0,0,1,3,3v20a3,3,0,0,1,-3,3h-343a3,3,0,0,1,-3,-3v-20a3,3,0,0,1,3,-3z" stroke-width="1"></path><g id="node_text38" fill="black"><text id="kity_text_223" text-rendering="inherit" font-size="14" dy=".8em" y="115.2599983215332" x="309.5">(!(~+[])+{})[--[~+""][+[]]*[~+[]] + ~~!+[]] ="s"</text></g></g><g id="minder_node4"><g id="node_expander11" style="cursor: pointer;"><path id="kity_path_361" fill="white" stroke="gray" d="M220,166.5A6,6,0,1,1,208,166.5A6,6,0,1,1,220,166.5"></path><path id="kity_path_362" fill="none" stroke="gray" d="M209.5,166.5L218.5,166.5"></path></g><path id="node_outline12" fill="none" stroke="none" d="M108.5,172.5h211a5,5,0,0,1,5,5v12a5,5,0,0,1,-5,5h-211a5,5,0,0,1,-5,-5v-12a5,5,0,0,1,5,-5z"></path><g id="node_text12" fill="black"><text id="kity_text_171" text-rendering="inherit" font-size="12" dy=".8em" y="175.5800018310547" x="113.5">(!(~+[])+{}) = "false[object Object]"</text></g></g><g id="minder_node5"><g id="node_expander8" style="cursor: pointer;"><path id="kity_path_352" fill="white" stroke="gray" d="M118.5,218.5A6,6,0,1,1,106.5,218.5A6,6,0,1,1,118.5,218.5"></path><path id="kity_path_353" fill="none" stroke="gray" d="M108,218.5L117,218.5"></path></g><path id="node_outline9" fill="none" stroke="none" d="M67.5,224.5h90a5,5,0,0,1,5,5v12a5,5,0,0,1,-5,5h-90a5,5,0,0,1,-5,-5v-12a5,5,0,0,1,5,-5z"></path><g id="node_text9" fill="black"><text id="kity_text_165" text-rendering="inherit" font-size="12" dy=".8em" y="227.5800018310547" x="72.5">!(~+[]) = false</text></g></g><g id="minder_node6"><g id="node_expander2" style="cursor: pointer;" display="none"><path id="kity_path_334" fill="white" stroke="gray" d="M38.5,270.5A6,6,0,1,1,26.5,270.5A6,6,0,1,1,38.5,270.5"></path><path id="kity_path_335" fill="none" stroke="gray"></path></g><path id="node_outline3" fill="none" stroke="none" d="M25.5,276.5h14a5,5,0,0,1,5,5v12a5,5,0,0,1,-5,5h-14a5,5,0,0,1,-5,-5v-12a5,5,0,0,1,5,-5z"></path><g id="node_text3" fill="black"><text id="kity_text_153" text-rendering="inherit" font-size="12" dy=".8em" y="279.5800018310547" x="30.5">!</text></g></g><g id="minder_node7"><g id="node_expander7" style="cursor: pointer;"><path id="kity_path_349" fill="white" stroke="gray" d="M151,270.5A6,6,0,1,1,139,270.5A6,6,0,1,1,151,270.5"></path><path id="kity_path_350" fill="none" stroke="gray" d="M140.5,270.5L149.5,270.5"></path></g><path id="node_outline8" fill="none" stroke="none" d="M89.5,276.5h111a5,5,0,0,1,5,5v12a5,5,0,0,1,-5,5h-111a5,5,0,0,1,-5,-5v-12a5,5,0,0,1,5,-5z"></path><g id="node_text8" fill="black"><text id="kity_text_163" text-rendering="inherit" font-size="12" dy=".8em" y="279.5800018310547" x="94.5">(~+[]) = -1 = true</text></g></g><g id="minder_node8"><g id="node_expander3" style="cursor: pointer;" display="none"><path id="kity_path_337" fill="white" stroke="gray" d="M113,322.5A6,6,0,1,1,101,322.5A6,6,0,1,1,113,322.5"></path><path id="kity_path_338" fill="none" stroke="gray"></path></g><path id="node_outline4" fill="none" stroke="none" d="M97.5,328.5h19a5,5,0,0,1,5,5v12a5,5,0,0,1,-5,5h-19a5,5,0,0,1,-5,-5v-12a5,5,0,0,1,5,-5z"></path><g id="node_text4" fill="black"><text id="kity_text_155" text-rendering="inherit" font-size="12" dy=".8em" y="331.5800018310547" x="102.5">~</text></g></g><g id="minder_node9"><g id="node_expander6" style="cursor: pointer;"><path id="kity_path_346" fill="white" stroke="gray" d="M186,322.5A6,6,0,1,1,174,322.5A6,6,0,1,1,186,322.5"></path><path id="kity_path_347" fill="none" stroke="gray" d="M175.5,322.5L184.5,322.5M180,318L180,327"></path></g><path id="node_outline7" fill="none" stroke="none" d="M166.5,328.5h27a5,5,0,0,1,5,5v12a5,5,0,0,1,-5,5h-27a5,5,0,0,1,-5,-5v-12a5,5,0,0,1,5,-5z"></path><g id="node_text7" fill="black"><text id="kity_text_161" text-rendering="inherit" font-size="12" dy=".8em" y="331.5800018310547" x="171.5">+[]</text></g></g><g id="minder_node10" display="none"><g id="node_expander4" style="cursor: pointer;" display="none"><path id="kity_path_340" fill="white" stroke="gray" d="M146.5,374.5A6,6,0,1,1,134.5,374.5A6,6,0,1,1,146.5,374.5"></path><path id="kity_path_341" fill="none" stroke="gray"></path></g><path id="node_outline5" fill="none" stroke="none" d="M135.5,369.5h11a5,5,0,0,1,5,5v12a5,5,0,0,1,-5,5h-11a5,5,0,0,1,-5,-5v-12a5,5,0,0,1,5,-5z"></path><g id="node_text5" fill="black"><text id="kity_text_157" text-rendering="inherit" font-size="12" dy=".8em" y="372.5800018310547" x="140.5">+</text></g></g><g id="minder_node11" display="none"><g id="node_expander5" style="cursor: pointer;" display="none"><path id="kity_path_343" fill="white" stroke="gray" d="M186.5,374.5A6,6,0,1,1,174.5,374.5A6,6,0,1,1,186.5,374.5"></path><path id="kity_path_344" fill="none" stroke="gray"></path></g><path id="node_outline6" fill="none" stroke="none" d="M175.5,369.5h11a5,5,0,0,1,5,5v12a5,5,0,0,1,-5,5h-11a5,5,0,0,1,-5,-5v-12a5,5,0,0,1,5,-5z"></path><g id="node_text6" fill="black"><text id="kity_text_159" text-rendering="inherit" font-size="12" dy=".8em" y="372.5800018310547" x="180.5">[]</text></g></g><g id="minder_node12"><g id="node_expander9" style="cursor: pointer;" display="none"><path id="kity_path_355" fill="white" stroke="gray" d="M266,218.5A6,6,0,1,1,254,218.5A6,6,0,1,1,266,218.5"></path><path id="kity_path_356" fill="none" stroke="gray"></path></g><path id="node_outline10" fill="none" stroke="none" d="M250.5,224.5h19a5,5,0,0,1,5,5v12a5,5,0,0,1,-5,5h-19a5,5,0,0,1,-5,-5v-12a5,5,0,0,1,5,-5z"></path><g id="node_text10" fill="black"><text id="kity_text_167" text-rendering="inherit" font-size="12" dy=".8em" y="227.5800018310547" x="255.5">+</text></g></g><g id="minder_node13"><g id="node_expander10" style="cursor: pointer;" display="none"><path id="kity_path_358" fill="white" stroke="gray" d="M346,218.5A6,6,0,1,1,334,218.5A6,6,0,1,1,346,218.5"></path><path id="kity_path_359" fill="none" stroke="gray"></path></g><path id="node_outline11" fill="none" stroke="none" d="M319.5,224.5h41a5,5,0,0,1,5,5v12a5,5,0,0,1,-5,5h-41a5,5,0,0,1,-5,-5v-12a5,5,0,0,1,5,-5z"></path><g id="node_text11" fill="black"><text id="kity_text_169" text-rendering="inherit" font-size="12" dy=".8em" y="227.5800018310547" x="324.5">{} = 0</text></g></g><g id="minder_node14"><g id="node_expander36" style="cursor: pointer;"><path id="kity_path_436" fill="white" stroke="gray" d="M718.5,166.5A6,6,0,1,1,706.5,166.5A6,6,0,1,1,718.5,166.5"></path><path id="kity_path_437" fill="none" stroke="gray" d="M708,166.5L717,166.5"></path></g><path id="node_outline37" fill="none" stroke="none" d="M605.5,172.5h214a5,5,0,0,1,5,5v12a5,5,0,0,1,-5,5h-214a5,5,0,0,1,-5,-5v-12a5,5,0,0,1,5,-5z"></path><g id="node_text37" fill="black"><text id="kity_text_221" text-rendering="inherit" font-size="12" dy=".8em" y="175.5800018310547" x="610.5">[--[~+""][+[]]*[~+[]] + ~~!+[]] = [3]</text></g></g><g id="minder_node15"><g id="node_expander12" style="cursor: pointer;" display="none"><path id="kity_path_364" fill="white" stroke="gray" d="M425.5,218.5A6,6,0,1,1,413.5,218.5A6,6,0,1,1,425.5,218.5"></path><path id="kity_path_365" fill="none" stroke="gray"></path></g><path id="node_outline13" fill="none" stroke="none" d="M410.5,224.5h18a5,5,0,0,1,5,5v12a5,5,0,0,1,-5,5h-18a5,5,0,0,1,-5,-5v-12a5,5,0,0,1,5,-5z"></path><g id="node_text13" fill="black"><text id="kity_text_173" text-rendering="inherit" font-size="12" dy=".8em" y="227.5800018310547" x="415.5">[]</text></g></g><g id="minder_node16"><g id="node_expander35" style="cursor: pointer;"><path id="kity_path_433" fill="white" stroke="gray" d="M921.5,218.5A6,6,0,1,1,909.5,218.5A6,6,0,1,1,921.5,218.5"></path><path id="kity_path_434" fill="none" stroke="gray" d="M911,218.5L920,218.5"></path></g><path id="node_outline36" fill="none" stroke="none" d="M816.5,224.5h198a5,5,0,0,1,5,5v12a5,5,0,0,1,-5,5h-198a5,5,0,0,1,-5,-5v-12a5,5,0,0,1,5,-5z"></path><g id="node_text36" fill="black"><text id="kity_text_219" text-rendering="inherit" font-size="12" dy=".8em" y="227.5800018310547" x="821.5">--[~+""][+[]]*[~+[]]&#xa0;+&#xa0;~~!+[] = 3</text></g></g><g id="minder_node17"><g id="node_expander24" style="cursor: pointer;"><path id="kity_path_400" fill="white" stroke="gray" d="M743.5,270.5A6,6,0,1,1,731.5,270.5A6,6,0,1,1,743.5,270.5"></path><path id="kity_path_401" fill="none" stroke="gray" d="M733,270.5L742,270.5"></path></g><path id="node_outline25" fill="none" stroke="none" d="M665.5,276.5h144a5,5,0,0,1,5,5v12a5,5,0,0,1,-5,5h-144a5,5,0,0,1,-5,-5v-12a5,5,0,0,1,5,-5z"></path><g id="node_text25" fill="black"><text id="kity_text_197" text-rendering="inherit" font-size="12" dy=".8em" y="279.5800018310547" x="670.5">--[~+""][+[]]*[~+[]] = 2</text></g></g><g id="minder_node18"><g id="node_expander21" style="cursor: pointer;"><path id="kity_path_391" fill="white" stroke="gray" d="M594.5,322.5A6,6,0,1,1,582.5,322.5A6,6,0,1,1,594.5,322.5"></path><path id="kity_path_392" fill="none" stroke="gray" d="M584,322.5L593,322.5"></path></g><path id="node_outline22" fill="none" stroke="none" d="M533.5,328.5h110a5,5,0,0,1,5,5v12a5,5,0,0,1,-5,5h-110a5,5,0,0,1,-5,-5v-12a5,5,0,0,1,5,-5z"></path><g id="node_text22" fill="black"><text id="kity_text_191" text-rendering="inherit" font-size="12" dy=".8em" y="331.5800018310547" x="538.5">--[~+""][+[]] = -2</text></g></g><g id="minder_node19"><g id="node_expander13" style="cursor: pointer;" display="none"><path id="kity_path_367" fill="white" stroke="gray" d="M495.5,374.5A6,6,0,1,1,483.5,374.5A6,6,0,1,1,495.5,374.5"></path><path id="kity_path_368" fill="none" stroke="gray"></path></g><path id="node_outline14" fill="none" stroke="none" d="M479.5,380.5h20a5,5,0,0,1,5,5v12a5,5,0,0,1,-5,5h-20a5,5,0,0,1,-5,-5v-12a5,5,0,0,1,5,-5z"></path><g id="node_text14" fill="black"><text id="kity_text_175" text-rendering="inherit" font-size="12" dy=".8em" y="383.5800018310547" x="484.5">--</text></g></g><g id="minder_node20"><g id="node_expander20" style="cursor: pointer;"><path id="kity_path_388" fill="white" stroke="gray" d="M654,374.5A6,6,0,1,1,642,374.5A6,6,0,1,1,654,374.5"></path><path id="kity_path_389" fill="none" stroke="gray" d="M643.5,374.5L652.5,374.5"></path></g><path id="node_outline21" fill="none" stroke="none" d="M598.5,380.5h99a5,5,0,0,1,5,5v12a5,5,0,0,1,-5,5h-99a5,5,0,0,1,-5,-5v-12a5,5,0,0,1,5,-5z"></path><g id="node_text21" fill="black"><text id="kity_text_189" text-rendering="inherit" font-size="12" dy=".8em" y="383.5800018310547" x="603.5">[~+""][+[]] = -1</text></g></g><g id="minder_node21"><g id="node_expander16" style="cursor: pointer;"><path id="kity_path_376" fill="white" stroke="gray" d="M596.5,426.5A6,6,0,1,1,584.5,426.5A6,6,0,1,1,596.5,426.5"></path><path id="kity_path_377" fill="none" stroke="gray" d="M586,426.5L595,426.5M590.5,422L590.5,431"></path></g><path id="node_outline17" fill="none" stroke="none" d="M549.5,432.5h82a5,5,0,0,1,5,5v12a5,5,0,0,1,-5,5h-82a5,5,0,0,1,-5,-5v-12a5,5,0,0,1,5,-5z"></path><g id="node_text17" fill="black"><text id="kity_text_181" text-rendering="inherit" font-size="12" dy=".8em" y="435.5800018310547" x="554.5">[~+""] = [-1]</text></g></g><g id="minder_node22" display="none"><g id="node_expander14" style="cursor: pointer;" display="none"><path id="kity_path_370" fill="white" stroke="gray" d="M556.5,478.5A6,6,0,1,1,544.5,478.5A6,6,0,1,1,556.5,478.5"></path><path id="kity_path_371" fill="none" stroke="gray"></path></g><path id="node_outline15" fill="none" stroke="none" d="M545.5,473.5h11a5,5,0,0,1,5,5v12a5,5,0,0,1,-5,5h-11a5,5,0,0,1,-5,-5v-12a5,5,0,0,1,5,-5z"></path><g id="node_text15" fill="black"><text id="kity_text_177" text-rendering="inherit" font-size="12" dy=".8em" y="476.5800018310547" x="550.5">[]</text></g></g><g id="minder_node23" display="none"><g id="node_expander15" style="cursor: pointer;" display="none"><path id="kity_path_373" fill="white" stroke="gray" d="M596.5,478.5A6,6,0,1,1,584.5,478.5A6,6,0,1,1,596.5,478.5"></path><path id="kity_path_374" fill="none" stroke="gray"></path></g><path id="node_outline16" fill="none" stroke="none" d="M585.5,473.5h11a5,5,0,0,1,5,5v12a5,5,0,0,1,-5,5h-11a5,5,0,0,1,-5,-5v-12a5,5,0,0,1,5,-5z"></path><g id="node_text16" fill="black"><text id="kity_text_179" text-rendering="inherit" font-size="12" dy=".8em" y="476.5800018310547" x="590.5">~+""</text></g></g><g id="minder_node24"><g id="node_expander19" style="cursor: pointer;"><path id="kity_path_385" fill="white" stroke="gray" d="M720.5,426.5A6,6,0,1,1,708.5,426.5A6,6,0,1,1,720.5,426.5"></path><path id="kity_path_386" fill="none" stroke="gray" d="M710,426.5L719,426.5M714.5,422L714.5,431"></path></g><path id="node_outline20" fill="none" stroke="none" d="M681.5,432.5h66a5,5,0,0,1,5,5v12a5,5,0,0,1,-5,5h-66a5,5,0,0,1,-5,-5v-12a5,5,0,0,1,5,-5z"></path><g id="node_text20" fill="black"><text id="kity_text_187" text-rendering="inherit" font-size="12" dy=".8em" y="435.5800018310547" x="686.5">[+[]] = [0]</text></g></g><g id="minder_node25" display="none"><g id="node_expander17" style="cursor: pointer;" display="none"><path id="kity_path_379" fill="white" stroke="gray" d="M680.5,478.5A6,6,0,1,1,668.5,478.5A6,6,0,1,1,680.5,478.5"></path><path id="kity_path_380" fill="none" stroke="gray"></path></g><path id="node_outline18" fill="none" stroke="none" d="M669.5,473.5h11a5,5,0,0,1,5,5v12a5,5,0,0,1,-5,5h-11a5,5,0,0,1,-5,-5v-12a5,5,0,0,1,5,-5z"></path><g id="node_text18" fill="black"><text id="kity_text_183" text-rendering="inherit" font-size="12" dy=".8em" y="476.5800018310547" x="674.5">[]</text></g></g><g id="minder_node26" display="none"><g id="node_expander18" style="cursor: pointer;" display="none"><path id="kity_path_382" fill="white" stroke="gray" d="M720.5,478.5A6,6,0,1,1,708.5,478.5A6,6,0,1,1,720.5,478.5"></path><path id="kity_path_383" fill="none" stroke="gray"></path></g><path id="node_outline19" fill="none" stroke="none" d="M709.5,473.5h11a5,5,0,0,1,5,5v12a5,5,0,0,1,-5,5h-11a5,5,0,0,1,-5,-5v-12a5,5,0,0,1,5,-5z"></path><g id="node_text19" fill="black"><text id="kity_text_185" text-rendering="inherit" font-size="12" dy=".8em" y="476.5800018310547" x="714.5">+[]</text></g></g><g id="minder_node27"><g id="node_expander22" style="cursor: pointer;" display="none"><path id="kity_path_394" fill="white" stroke="gray" d="M810,322.5A6,6,0,1,1,798,322.5A6,6,0,1,1,810,322.5"></path><path id="kity_path_395" fill="none" stroke="gray"></path></g><path id="node_outline23" fill="none" stroke="none" d="M796.5,328.5h15a5,5,0,0,1,5,5v12a5,5,0,0,1,-5,5h-15a5,5,0,0,1,-5,-5v-12a5,5,0,0,1,5,-5z"></path><g id="node_text23" fill="black"><text id="kity_text_193" text-rendering="inherit" font-size="12" dy=".8em" y="331.5800018310547" x="801.5">*</text></g></g><g id="minder_node28"><g id="node_expander23" style="cursor: pointer;" display="none"><path id="kity_path_397" fill="white" stroke="gray" d="M907.5,322.5A6,6,0,1,1,895.5,322.5A6,6,0,1,1,907.5,322.5"></path><path id="kity_path_398" fill="none" stroke="gray"></path></g><path id="node_outline24" fill="none" stroke="none" d="M861.5,328.5h80a5,5,0,0,1,5,5v12a5,5,0,0,1,-5,5h-80a5,5,0,0,1,-5,-5v-12a5,5,0,0,1,5,-5z"></path><g id="node_text24" fill="black"><text id="kity_text_195" text-rendering="inherit" font-size="12" dy=".8em" y="331.5800018310547" x="866.5">[~+[]] = [-1]</text></g></g><g id="minder_node29"><g id="node_expander25" style="cursor: pointer;" display="none"><path id="kity_path_403" fill="white" stroke="gray" d="M1008,270.5A6,6,0,1,1,996,270.5A6,6,0,1,1,1008,270.5"></path><path id="kity_path_404" fill="none" stroke="gray"></path></g><path id="node_outline26" fill="none" stroke="none" d="M992.5,276.5h19a5,5,0,0,1,5,5v12a5,5,0,0,1,-5,5h-19a5,5,0,0,1,-5,-5v-12a5,5,0,0,1,5,-5z"></path><g id="node_text26" fill="black"><text id="kity_text_199" text-rendering="inherit" font-size="12" dy=".8em" y="279.5800018310547" x="997.5">+</text></g></g><g id="minder_node30"><g id="node_expander34" style="cursor: pointer;"><path id="kity_path_430" fill="white" stroke="gray" d="M1136,270.5A6,6,0,1,1,1124,270.5A6,6,0,1,1,1136,270.5"></path><path id="kity_path_431" fill="none" stroke="gray" d="M1125.5,270.5L1134.5,270.5"></path></g><path id="node_outline35" fill="none" stroke="none" d="M1094.5,276.5h71a5,5,0,0,1,5,5v12a5,5,0,0,1,-5,5h-71a5,5,0,0,1,-5,-5v-12a5,5,0,0,1,5,-5z"></path><g id="node_text35" fill="black"><text id="kity_text_217" text-rendering="inherit" font-size="12" dy=".8em" y="279.5800018310547" x="1099.5">~~!+[] = 1</text></g></g><g id="minder_node31"><g id="node_expander26" style="cursor: pointer;" display="none"><path id="kity_path_406" fill="white" stroke="gray" d="M1077,322.5A6,6,0,1,1,1065,322.5A6,6,0,1,1,1077,322.5"></path><path id="kity_path_407" fill="none" stroke="gray"></path></g><path id="node_outline27" fill="none" stroke="none" d="M1061.5,328.5h19a5,5,0,0,1,5,5v12a5,5,0,0,1,-5,5h-19a5,5,0,0,1,-5,-5v-12a5,5,0,0,1,5,-5z"></path><g id="node_text27" fill="black"><text id="kity_text_201" text-rendering="inherit" font-size="12" dy=".8em" y="331.5800018310547" x="1066.5">~</text></g></g><g id="minder_node32"><g id="node_expander33" style="cursor: pointer;"><path id="kity_path_427" fill="white" stroke="gray" d="M1170.5,322.5A6,6,0,1,1,1158.5,322.5A6,6,0,1,1,1170.5,322.5"></path><path id="kity_path_428" fill="none" stroke="gray" d="M1160,322.5L1169,322.5M1164.5,318L1164.5,327"></path></g><path id="node_outline34" fill="none" stroke="none" d="M1130.5,328.5h68a5,5,0,0,1,5,5v12a5,5,0,0,1,-5,5h-68a5,5,0,0,1,-5,-5v-12a5,5,0,0,1,5,-5z"></path><g id="node_text34" fill="black"><text id="kity_text_215" text-rendering="inherit" font-size="12" dy=".8em" y="331.5800018310547" x="1135.5">~!+[] = -2</text></g></g><g id="minder_node33" display="none"><g id="node_expander27" style="cursor: pointer;" display="none"><path id="kity_path_409" fill="white" stroke="gray" d="M1130.5,374.5A6,6,0,1,1,1118.5,374.5A6,6,0,1,1,1130.5,374.5"></path><path id="kity_path_410" fill="none" stroke="gray"></path></g><path id="node_outline28" fill="none" stroke="none" d="M1119.5,369.5h11a5,5,0,0,1,5,5v12a5,5,0,0,1,-5,5h-11a5,5,0,0,1,-5,-5v-12a5,5,0,0,1,5,-5z"></path><g id="node_text28" fill="black"><text id="kity_text_203" text-rendering="inherit" font-size="12" dy=".8em" y="372.5800018310547" x="1124.5">~</text></g></g><g id="minder_node34" display="none"><g id="node_expander32" style="cursor: pointer;" display="none"><path id="kity_path_424" fill="white" stroke="gray" d="M1170.5,374.5A6,6,0,1,1,1158.5,374.5A6,6,0,1,1,1170.5,374.5"></path><path id="kity_path_425" fill="none" stroke="gray"></path></g><path id="node_outline33" fill="none" stroke="none" d="M1159.5,369.5h11a5,5,0,0,1,5,5v12a5,5,0,0,1,-5,5h-11a5,5,0,0,1,-5,-5v-12a5,5,0,0,1,5,-5z"></path><g id="node_text33" fill="black"><text id="kity_text_213" text-rendering="inherit" font-size="12" dy=".8em" y="372.5800018310547" x="1164.5">!+[] = true = 1</text></g></g><g id="minder_node35" display="none"><g id="node_expander28" style="cursor: pointer;" display="none"><path id="kity_path_412" fill="white" stroke="gray" d="M1130.5,404.5A6,6,0,1,1,1118.5,404.5A6,6,0,1,1,1130.5,404.5"></path><path id="kity_path_413" fill="none" stroke="gray"></path></g><path id="node_outline29" fill="none" stroke="none" d="M1119.5,399.5h11a5,5,0,0,1,5,5v12a5,5,0,0,1,-5,5h-11a5,5,0,0,1,-5,-5v-12a5,5,0,0,1,5,-5z"></path><g id="node_text29" fill="black"><text id="kity_text_205" text-rendering="inherit" font-size="12" dy=".8em" y="402.5800018310547" x="1124.5">!</text></g></g><g id="minder_node36" display="none"><g id="node_expander31" style="cursor: pointer;" display="none"><path id="kity_path_421" fill="white" stroke="gray" d="M1170.5,404.5A6,6,0,1,1,1158.5,404.5A6,6,0,1,1,1170.5,404.5"></path><path id="kity_path_422" fill="none" stroke="gray"></path></g><path id="node_outline32" fill="none" stroke="none" d="M1159.5,399.5h11a5,5,0,0,1,5,5v12a5,5,0,0,1,-5,5h-11a5,5,0,0,1,-5,-5v-12a5,5,0,0,1,5,-5z"></path><g id="node_text32" fill="black"><text id="kity_text_211" text-rendering="inherit" font-size="12" dy=".8em" y="402.5800018310547" x="1164.5">+[] = 0</text></g></g><g id="minder_node37" display="none"><g id="node_expander29" style="cursor: pointer;" display="none"><path id="kity_path_415" fill="white" stroke="gray" d="M1130.5,434.5A6,6,0,1,1,1118.5,434.5A6,6,0,1,1,1130.5,434.5"></path><path id="kity_path_416" fill="none" stroke="gray"></path></g><path id="node_outline30" fill="none" stroke="none" d="M1119.5,429.5h11a5,5,0,0,1,5,5v12a5,5,0,0,1,-5,5h-11a5,5,0,0,1,-5,-5v-12a5,5,0,0,1,5,-5z"></path><g id="node_text30" fill="black"><text id="kity_text_207" text-rendering="inherit" font-size="12" dy=".8em" y="432.5800018310547" x="1124.5">+</text></g></g><g id="minder_node38" display="none"><g id="node_expander30" style="cursor: pointer;" display="none"><path id="kity_path_418" fill="white" stroke="gray" d="M1170.5,434.5A6,6,0,1,1,1158.5,434.5A6,6,0,1,1,1170.5,434.5"></path><path id="kity_path_419" fill="none" stroke="gray"></path></g><path id="node_outline31" fill="none" stroke="none" d="M1159.5,429.5h11a5,5,0,0,1,5,5v12a5,5,0,0,1,-5,5h-11a5,5,0,0,1,-5,-5v-12a5,5,0,0,1,5,-5z"></path><g id="node_text31" fill="black"><text id="kity_text_209" text-rendering="inherit" font-size="12" dy=".8em" y="432.5800018310547" x="1164.5">[]</text></g></g><g id="minder_node39"><g id="node_expander60" style="cursor: pointer;"><path id="kity_path_508" fill="white" stroke="gray" d="M1462.5,104.5A6,6,0,1,1,1450.5,104.5A6,6,0,1,1,1462.5,104.5"></path><path id="kity_path_509" fill="none" stroke="gray" d="M1452,104.5L1461,104.5"></path></g><path id="node_outline61" fill="rgb(238, 243, 246)" stroke="rgb(115, 161, 191)" d="M1355.5,111.5h202a3,3,0,0,1,3,3v20a3,3,0,0,1,-3,3h-202a3,3,0,0,1,-3,-3v-20a3,3,0,0,1,3,-3z" stroke-width="1"></path><g id="node_text61" fill="black"><text id="kity_text_269" text-rendering="inherit" font-size="14" dy=".8em" y="115.2599983215332" x="1372.5">({}+[])[[~!+[]]*~+[]] = "b"</text></g></g><g id="minder_node40"><g id="node_expander41" style="cursor: pointer;"><path id="kity_path_451" fill="white" stroke="gray" d="M1330,166.5A6,6,0,1,1,1318,166.5A6,6,0,1,1,1330,166.5"></path><path id="kity_path_452" fill="none" stroke="gray" d="M1319.5,166.5L1328.5,166.5"></path></g><path id="node_outline42" fill="none" stroke="none" d="M1250.5,172.5h147a5,5,0,0,1,5,5v12a5,5,0,0,1,-5,5h-147a5,5,0,0,1,-5,-5v-12a5,5,0,0,1,5,-5z"></path><g id="node_text42" fill="black"><text id="kity_text_231" text-rendering="inherit" font-size="12" dy=".8em" y="175.5800018310547" x="1255.5">({}+[]) ='[object Object]'</text></g></g><g id="minder_node41"><g id="node_expander38" style="cursor: pointer;" display="none"><path id="kity_path_442" fill="white" stroke="gray" d="M1261.5,218.5A6,6,0,1,1,1249.5,218.5A6,6,0,1,1,1261.5,218.5"></path><path id="kity_path_443" fill="none" stroke="gray"></path></g><path id="node_outline39" fill="none" stroke="none" d="M1246.5,224.5h18a5,5,0,0,1,5,5v12a5,5,0,0,1,-5,5h-18a5,5,0,0,1,-5,-5v-12a5,5,0,0,1,5,-5z"></path><g id="node_text39" fill="black"><text id="kity_text_225" text-rendering="inherit" font-size="12" dy=".8em" y="227.5800018310547" x="1251.5">{}</text></g></g><g id="minder_node42"><g id="node_expander39" style="cursor: pointer;" display="none"><path id="kity_path_445" fill="white" stroke="gray" d="M1330,218.5A6,6,0,1,1,1318,218.5A6,6,0,1,1,1330,218.5"></path><path id="kity_path_446" fill="none" stroke="gray"></path></g><path id="node_outline40" fill="none" stroke="none" d="M1314.5,224.5h19a5,5,0,0,1,5,5v12a5,5,0,0,1,-5,5h-19a5,5,0,0,1,-5,-5v-12a5,5,0,0,1,5,-5z"></path><g id="node_text40" fill="black"><text id="kity_text_227" text-rendering="inherit" font-size="12" dy=".8em" y="227.5800018310547" x="1319.5">+</text></g></g><g id="minder_node43"><g id="node_expander40" style="cursor: pointer;" display="none"><path id="kity_path_448" fill="white" stroke="gray" d="M1398.5,218.5A6,6,0,1,1,1386.5,218.5A6,6,0,1,1,1398.5,218.5"></path><path id="kity_path_449" fill="none" stroke="gray"></path></g><path id="node_outline41" fill="none" stroke="none" d="M1383.5,224.5h18a5,5,0,0,1,5,5v12a5,5,0,0,1,-5,5h-18a5,5,0,0,1,-5,-5v-12a5,5,0,0,1,5,-5z"></path><g id="node_text41" fill="black"><text id="kity_text_229" text-rendering="inherit" font-size="12" dy=".8em" y="227.5800018310547" x="1388.5">[]</text></g></g><g id="minder_node44"><g id="node_expander59" style="cursor: pointer;"><path id="kity_path_505" fill="white" stroke="gray" d="M1609.5,166.5A6,6,0,1,1,1597.5,166.5A6,6,0,1,1,1609.5,166.5"></path><path id="kity_path_506" fill="none" stroke="gray" d="M1599,166.5L1608,166.5"></path></g><path id="node_outline60" fill="none" stroke="none" d="M1544.5,172.5h118a5,5,0,0,1,5,5v12a5,5,0,0,1,-5,5h-118a5,5,0,0,1,-5,-5v-12a5,5,0,0,1,5,-5z"></path><g id="node_text60" fill="black"><text id="kity_text_267" text-rendering="inherit" font-size="12" dy=".8em" y="175.5800018310547" x="1549.5">[[~!+[]]*~+[]] = [2]</text></g></g><g id="minder_node45"><g id="node_expander42" style="cursor: pointer;" display="none"><path id="kity_path_454" fill="white" stroke="gray" d="M1466.5,218.5A6,6,0,1,1,1454.5,218.5A6,6,0,1,1,1466.5,218.5"></path><path id="kity_path_455" fill="none" stroke="gray"></path></g><path id="node_outline43" fill="none" stroke="none" d="M1451.5,224.5h18a5,5,0,0,1,5,5v12a5,5,0,0,1,-5,5h-18a5,5,0,0,1,-5,-5v-12a5,5,0,0,1,5,-5z"></path><g id="node_text43" fill="black"><text id="kity_text_233" text-rendering="inherit" font-size="12" dy=".8em" y="227.5800018310547" x="1456.5">[]</text></g></g><g id="minder_node46"><g id="node_expander58" style="cursor: pointer;"><path id="kity_path_502" fill="white" stroke="gray" d="M1710.5,218.5A6,6,0,1,1,1698.5,218.5A6,6,0,1,1,1710.5,218.5"></path><path id="kity_path_503" fill="none" stroke="gray" d="M1700,218.5L1709,218.5"></path></g><path id="node_outline59" fill="none" stroke="none" d="M1653.5,224.5h102a5,5,0,0,1,5,5v12a5,5,0,0,1,-5,5h-102a5,5,0,0,1,-5,-5v-12a5,5,0,0,1,5,-5z"></path><g id="node_text59" fill="black"><text id="kity_text_265" text-rendering="inherit" font-size="12" dy=".8em" y="227.5800018310547" x="1658.5">[~!+[]]*~+[] = 2</text></g></g><g id="minder_node47"><g id="node_expander51" style="cursor: pointer;"><path id="kity_path_481" fill="white" stroke="gray" d="M1594.5,270.5A6,6,0,1,1,1582.5,270.5A6,6,0,1,1,1594.5,270.5"></path><path id="kity_path_482" fill="none" stroke="gray" d="M1584,270.5L1593,270.5"></path></g><path id="node_outline52" fill="none" stroke="none" d="M1546.5,276.5h84a5,5,0,0,1,5,5v12a5,5,0,0,1,-5,5h-84a5,5,0,0,1,-5,-5v-12a5,5,0,0,1,5,-5z"></path><g id="node_text52" fill="black"><text id="kity_text_251" text-rendering="inherit" font-size="12" dy=".8em" y="279.5800018310547" x="1551.5">[~!+[]] = [-2]</text></g></g><g id="minder_node48"><g id="node_expander43" style="cursor: pointer;" display="none"><path id="kity_path_457" fill="white" stroke="gray" d="M1535.5,322.5A6,6,0,1,1,1523.5,322.5A6,6,0,1,1,1535.5,322.5"></path><path id="kity_path_458" fill="none" stroke="gray"></path></g><path id="node_outline44" fill="none" stroke="none" d="M1520.5,328.5h18a5,5,0,0,1,5,5v12a5,5,0,0,1,-5,5h-18a5,5,0,0,1,-5,-5v-12a5,5,0,0,1,5,-5z"></path><g id="node_text44" fill="black"><text id="kity_text_235" text-rendering="inherit" font-size="12" dy=".8em" y="331.5800018310547" x="1525.5">[]</text></g></g><g id="minder_node49"><g id="node_expander50" style="cursor: pointer;"><path id="kity_path_478" fill="white" stroke="gray" d="M1628.5,322.5A6,6,0,1,1,1616.5,322.5A6,6,0,1,1,1628.5,322.5"></path><path id="kity_path_479" fill="none" stroke="gray" d="M1618,322.5L1627,322.5M1622.5,318L1622.5,327"></path></g><path id="node_outline51" fill="none" stroke="none" d="M1588.5,328.5h68a5,5,0,0,1,5,5v12a5,5,0,0,1,-5,5h-68a5,5,0,0,1,-5,-5v-12a5,5,0,0,1,5,-5z"></path><g id="node_text51" fill="black"><text id="kity_text_249" text-rendering="inherit" font-size="12" dy=".8em" y="331.5800018310547" x="1593.5">~!+[] = -2</text></g></g><g id="minder_node50" display="none"><g id="node_expander44" style="cursor: pointer;" display="none"><path id="kity_path_460" fill="white" stroke="gray" d="M1588.5,374.5A6,6,0,1,1,1576.5,374.5A6,6,0,1,1,1588.5,374.5"></path><path id="kity_path_461" fill="none" stroke="gray"></path></g><path id="node_outline45" fill="none" stroke="none" d="M1577.5,369.5h11a5,5,0,0,1,5,5v12a5,5,0,0,1,-5,5h-11a5,5,0,0,1,-5,-5v-12a5,5,0,0,1,5,-5z"></path><g id="node_text45" fill="black"><text id="kity_text_237" text-rendering="inherit" font-size="12" dy=".8em" y="372.5800018310547" x="1582.5">~</text></g></g><g id="minder_node51" display="none"><g id="node_expander49" style="cursor: pointer;" display="none"><path id="kity_path_475" fill="white" stroke="gray" d="M1628.5,374.5A6,6,0,1,1,1616.5,374.5A6,6,0,1,1,1628.5,374.5"></path><path id="kity_path_476" fill="none" stroke="gray"></path></g><path id="node_outline50" fill="none" stroke="none" d="M1617.5,369.5h11a5,5,0,0,1,5,5v12a5,5,0,0,1,-5,5h-11a5,5,0,0,1,-5,-5v-12a5,5,0,0,1,5,-5z"></path><g id="node_text50" fill="black"><text id="kity_text_247" text-rendering="inherit" font-size="12" dy=".8em" y="372.5800018310547" x="1622.5">!+[] = true = 1</text></g></g><g id="minder_node52" display="none"><g id="node_expander45" style="cursor: pointer;" display="none"><path id="kity_path_463" fill="white" stroke="gray" d="M1588.5,404.5A6,6,0,1,1,1576.5,404.5A6,6,0,1,1,1588.5,404.5"></path><path id="kity_path_464" fill="none" stroke="gray"></path></g><path id="node_outline46" fill="none" stroke="none" d="M1577.5,399.5h11a5,5,0,0,1,5,5v12a5,5,0,0,1,-5,5h-11a5,5,0,0,1,-5,-5v-12a5,5,0,0,1,5,-5z"></path><g id="node_text46" fill="black"><text id="kity_text_239" text-rendering="inherit" font-size="12" dy=".8em" y="402.5800018310547" x="1582.5">!</text></g></g><g id="minder_node53" display="none"><g id="node_expander48" style="cursor: pointer;" display="none"><path id="kity_path_472" fill="white" stroke="gray" d="M1628.5,404.5A6,6,0,1,1,1616.5,404.5A6,6,0,1,1,1628.5,404.5"></path><path id="kity_path_473" fill="none" stroke="gray"></path></g><path id="node_outline49" fill="none" stroke="none" d="M1617.5,399.5h11a5,5,0,0,1,5,5v12a5,5,0,0,1,-5,5h-11a5,5,0,0,1,-5,-5v-12a5,5,0,0,1,5,-5z"></path><g id="node_text49" fill="black"><text id="kity_text_245" text-rendering="inherit" font-size="12" dy=".8em" y="402.5800018310547" x="1622.5">+[] = 0</text></g></g><g id="minder_node54" display="none"><g id="node_expander46" style="cursor: pointer;" display="none"><path id="kity_path_466" fill="white" stroke="gray" d="M1588.5,434.5A6,6,0,1,1,1576.5,434.5A6,6,0,1,1,1588.5,434.5"></path><path id="kity_path_467" fill="none" stroke="gray"></path></g><path id="node_outline47" fill="none" stroke="none" d="M1577.5,429.5h11a5,5,0,0,1,5,5v12a5,5,0,0,1,-5,5h-11a5,5,0,0,1,-5,-5v-12a5,5,0,0,1,5,-5z"></path><g id="node_text47" fill="black"><text id="kity_text_241" text-rendering="inherit" font-size="12" dy=".8em" y="432.5800018310547" x="1582.5">+</text></g></g><g id="minder_node55" display="none"><g id="node_expander47" style="cursor: pointer;" display="none"><path id="kity_path_469" fill="white" stroke="gray" d="M1628.5,434.5A6,6,0,1,1,1616.5,434.5A6,6,0,1,1,1628.5,434.5"></path><path id="kity_path_470" fill="none" stroke="gray"></path></g><path id="node_outline48" fill="none" stroke="none" d="M1617.5,429.5h11a5,5,0,0,1,5,5v12a5,5,0,0,1,-5,5h-11a5,5,0,0,1,-5,-5v-12a5,5,0,0,1,5,-5z"></path><g id="node_text48" fill="black"><text id="kity_text_243" text-rendering="inherit" font-size="12" dy=".8em" y="432.5800018310547" x="1622.5">[]</text></g></g><g id="minder_node56"><g id="node_expander52" style="cursor: pointer;" display="none"><path id="kity_path_484" fill="white" stroke="gray" d="M1720,270.5A6,6,0,1,1,1708,270.5A6,6,0,1,1,1720,270.5"></path><path id="kity_path_485" fill="none" stroke="gray"></path></g><path id="node_outline53" fill="none" stroke="none" d="M1706.5,276.5h15a5,5,0,0,1,5,5v12a5,5,0,0,1,-5,5h-15a5,5,0,0,1,-5,-5v-12a5,5,0,0,1,5,-5z"></path><g id="node_text53" fill="black"><text id="kity_text_253" text-rendering="inherit" font-size="12" dy=".8em" y="279.5800018310547" x="1711.5">*</text></g></g><g id="minder_node57"><g id="node_expander57" style="cursor: pointer;"><path id="kity_path_499" fill="white" stroke="gray" d="M1836.5,270.5A6,6,0,1,1,1824.5,270.5A6,6,0,1,1,1836.5,270.5"></path><path id="kity_path_500" fill="none" stroke="gray" d="M1826,270.5L1835,270.5"></path></g><path id="node_outline58" fill="none" stroke="none" d="M1798.5,276.5h64a5,5,0,0,1,5,5v12a5,5,0,0,1,-5,5h-64a5,5,0,0,1,-5,-5v-12a5,5,0,0,1,5,-5z"></path><g id="node_text58" fill="black"><text id="kity_text_263" text-rendering="inherit" font-size="12" dy=".8em" y="279.5800018310547" x="1803.5">~+[] = -1</text></g></g><g id="minder_node58"><g id="node_expander53" style="cursor: pointer;" display="none"><path id="kity_path_487" fill="white" stroke="gray" d="M1787,322.5A6,6,0,1,1,1775,322.5A6,6,0,1,1,1787,322.5"></path><path id="kity_path_488" fill="none" stroke="gray"></path></g><path id="node_outline54" fill="none" stroke="none" d="M1771.5,328.5h19a5,5,0,0,1,5,5v12a5,5,0,0,1,-5,5h-19a5,5,0,0,1,-5,-5v-12a5,5,0,0,1,5,-5z"></path><g id="node_text54" fill="black"><text id="kity_text_255" text-rendering="inherit" font-size="12" dy=".8em" y="331.5800018310547" x="1776.5">~</text></g></g><g id="minder_node59"><g id="node_expander56" style="cursor: pointer;"><path id="kity_path_496" fill="white" stroke="gray" d="M1871.5,322.5A6,6,0,1,1,1859.5,322.5A6,6,0,1,1,1871.5,322.5"></path><path id="kity_path_497" fill="none" stroke="gray" d="M1861,322.5L1870,322.5M1865.5,318L1865.5,327"></path></g><path id="node_outline57" fill="none" stroke="none" d="M1840.5,328.5h50a5,5,0,0,1,5,5v12a5,5,0,0,1,-5,5h-50a5,5,0,0,1,-5,-5v-12a5,5,0,0,1,5,-5z"></path><g id="node_text57" fill="black"><text id="kity_text_261" text-rendering="inherit" font-size="12" dy=".8em" y="331.5800018310547" x="1845.5">+[] = 0</text></g></g><g id="minder_node60" display="none"><g id="node_expander54" style="cursor: pointer;" display="none"><path id="kity_path_490" fill="white" stroke="gray" d="M1831.5,374.5A6,6,0,1,1,1819.5,374.5A6,6,0,1,1,1831.5,374.5"></path><path id="kity_path_491" fill="none" stroke="gray"></path></g><path id="node_outline55" fill="none" stroke="none" d="M1820.5,369.5h11a5,5,0,0,1,5,5v12a5,5,0,0,1,-5,5h-11a5,5,0,0,1,-5,-5v-12a5,5,0,0,1,5,-5z"></path><g id="node_text55" fill="black"><text id="kity_text_257" text-rendering="inherit" font-size="12" dy=".8em" y="372.5800018310547" x="1825.5">+</text></g></g><g id="minder_node61" display="none"><g id="node_expander55" style="cursor: pointer;" display="none"><path id="kity_path_493" fill="white" stroke="gray" d="M1871.5,374.5A6,6,0,1,1,1859.5,374.5A6,6,0,1,1,1871.5,374.5"></path><path id="kity_path_494" fill="none" stroke="gray"></path></g><path id="node_outline56" fill="none" stroke="none" d="M1860.5,369.5h11a5,5,0,0,1,5,5v12a5,5,0,0,1,-5,5h-11a5,5,0,0,1,-5,-5v-12a5,5,0,0,1,5,-5z"></path><g id="node_text56" fill="black"><text id="kity_text_259" text-rendering="inherit" font-size="12" dy=".8em" y="372.5800018310547" x="1865.5">[]</text></g></g></g></g></svg>