<svg id="kity_svg_6" xmlns="http://www.w3.org/2000/svg" xmlns:xlink="http://www.w3.org/1999/xlink" version="1.1" width="1754" height="473" style="background: rgb(251, 251, 251) none repeat scroll 0% 0%; visibility: visible;" viewBox="0 0 1754 473"><defs id="kity_defs_7"><linearGradient id="kity_linearGradient_17" x1="0" y1="0" x2="0" y2="1"><stop id="kity_stop_18" offset="0" stop-color="rgb(255, 255, 255)"></stop><stop id="kity_stop_19" offset="1" stop-color="rgb(204, 204, 204)"></stop></linearGradient><marker id="kity_marker_2" orient="auto" refX="6" refY="0" viewBox="-7 -7 14 14" markerWidth="7" markerHeight="7" markerUnits="userSpaceOnUse"><path id="kity_path_3" fill="rgb(115, 161, 191)" stroke="none" d="M6,0A6,6,0,1,1,-6,0A6,6,0,1,1,6,0"></path></marker></defs><g id="kity_g_8"><g id="minder1" text-rendering="geometricPrecision"><g id="minder_connect_group1"><path id="kity_path_31" fill="none" stroke="rgb(115, 161, 191)" stroke-width="1" d="M685.5,60.5v30h325.5V107.5"></path><path id="kity_path_39" fill="none" stroke="rgb(115, 161, 191)" stroke-width="1" d="M685.5,60.5v30h-201V110.5"></path><path id="kity_path_55" fill="none" stroke="rgb(115, 161, 191)" stroke-width="1" d="M685.5,60.5v30h671.5V110.5"></path><path id="kity_path_781" fill="none" stroke="rgb(115, 161, 191)" stroke-width="1" d="M99.5,245.5v15h-67V275.5"></path><path id="kity_path_782" fill="none" stroke="rgb(115, 161, 191)" stroke-width="1" d="M152.5,297.5v15h-53.5V327.5"></path><path id="kity_path_783" fill="none" stroke="rgb(115, 161, 191)" stroke-width="1" d="M202.5,349.5v15h-34V379.5"></path><path id="kity_path_784" fill="none" stroke="rgb(115, 161, 191)" stroke-width="1" d="M202.5,349.5v15h34.5V379.5"></path><path id="kity_path_785" fill="none" stroke="rgb(115, 161, 191)" stroke-width="1" d="M152.5,297.5v15h49.5V327.5"></path><path id="kity_path_786" fill="none" stroke="rgb(115, 161, 191)" stroke-width="1" d="M99.5,245.5v15h53V275.5"></path><path id="kity_path_787" fill="none" stroke="rgb(115, 161, 191)" stroke-width="1" d="M229.5,193.5v15h-129.5V223.5"></path><path id="kity_path_788" fill="none" stroke="rgb(115, 161, 191)" stroke-width="1" d="M229.5,193.5v15h76V223.5"></path><path id="kity_path_789" fill="none" stroke="rgb(115, 161, 191)" stroke-width="1" d="M229.5,193.5v15h144.5V223.5"></path><path id="kity_path_790" fill="none" stroke="rgb(115, 161, 191)" stroke-width="1" d="M484.5,136.5v20h-255V171.5"></path><path id="kity_path_791" fill="none" stroke="rgb(115, 161, 191)" stroke-width="1" d="M684.5,193.5v15h-243.5V223.5"></path><path id="kity_path_814" fill="none" stroke="rgb(115, 161, 191)" stroke-width="1" d="M684.5,193.5v15h165V223.5"></path><path id="kity_path_815" fill="none" stroke="rgb(115, 161, 191)" stroke-width="1" d="M484.5,136.5v20h200V171.5"></path><path id="kity_path_914" fill="none" stroke="rgb(115, 161, 191)" stroke-width="1" d="M585.5,349.5v15h-75V379.5"></path><path id="kity_path_915" fill="none" stroke="rgb(115, 161, 191)" stroke-width="1" d="M208.5,494.5v15h-44V524.5" display="none"></path><path id="kity_path_916" fill="none" stroke="rgb(115, 161, 191)" stroke-width="1" d="M208.5,494.5v15h34V524.5" display="none"></path><path id="kity_path_917" fill="none" stroke="rgb(115, 161, 191)" stroke-width="1" d="M636.5,401.5v15h-42.5V431.5"></path><path id="kity_path_918" fill="none" stroke="rgb(115, 161, 191)" stroke-width="1" d="M343.5,494.5v15h-38V524.5" display="none"></path><path id="kity_path_919" fill="none" stroke="rgb(115, 161, 191)" stroke-width="1" d="M343.5,494.5v15h34.5V524.5" display="none"></path><path id="kity_path_920" fill="none" stroke="rgb(115, 161, 191)" stroke-width="1" d="M636.5,401.5v15h48V431.5"></path><path id="kity_path_921" fill="none" stroke="rgb(115, 161, 191)" stroke-width="1" d="M585.5,349.5v15h50.5V379.5"></path><path id="kity_path_922" fill="none" stroke="rgb(115, 161, 191)" stroke-width="1" d="M702.5,297.5v15h-116.5V327.5"></path><path id="kity_path_923" fill="none" stroke="rgb(115, 161, 191)" stroke-width="1" d="M702.5,297.5v15h56V327.5"></path><path id="kity_path_924" fill="none" stroke="rgb(115, 161, 191)" stroke-width="1" d="M702.5,297.5v15h135.5V327.5"></path><path id="kity_path_925" fill="none" stroke="rgb(115, 161, 191)" stroke-width="1" d="M849.5,245.5v15h-147V275.5"></path><path id="kity_path_926" fill="none" stroke="rgb(115, 161, 191)" stroke-width="1" d="M849.5,245.5v15h70V275.5"></path><path id="kity_path_927" fill="none" stroke="rgb(115, 161, 191)" stroke-width="1" d="M1032.5,297.5v15h-44.5V327.5"></path><path id="kity_path_928" fill="none" stroke="rgb(115, 161, 191)" stroke-width="1" d="M788.5,390.5v15h-81.5V420.5" display="none"></path><path id="kity_path_929" fill="none" stroke="rgb(115, 161, 191)" stroke-width="1" d="M833.5,442.5v15h-59.5V472.5" display="none"></path><path id="kity_path_930" fill="none" stroke="rgb(115, 161, 191)" stroke-width="1" d="M874.5,494.5v15h-33.5V524.5" display="none"></path><path id="kity_path_931" fill="none" stroke="rgb(115, 161, 191)" stroke-width="1" d="M874.5,494.5v15h35V524.5" display="none"></path><path id="kity_path_932" fill="none" stroke="rgb(115, 161, 191)" stroke-width="1" d="M833.5,442.5v15h41.5V472.5" display="none"></path><path id="kity_path_933" fill="none" stroke="rgb(115, 161, 191)" stroke-width="1" d="M788.5,390.5v15h44.5V420.5" display="none"></path><path id="kity_path_934" fill="none" stroke="rgb(115, 161, 191)" stroke-width="1" d="M1032.5,297.5v15h35V327.5"></path><path id="kity_path_935" fill="none" stroke="rgb(115, 161, 191)" stroke-width="1" d="M849.5,245.5v15h183.5V275.5"></path><path id="kity_path_1012" fill="none" stroke="rgb(115, 161, 191)" stroke-width="1" d="M1215.5,193.5v15h-68.5V223.5"></path><path id="kity_path_1013" fill="none" stroke="rgb(115, 161, 191)" stroke-width="1" d="M1215.5,193.5v15h0V223.5"></path><path id="kity_path_1014" fill="none" stroke="rgb(115, 161, 191)" stroke-width="1" d="M1215.5,193.5v15h68.5V223.5"></path><path id="kity_path_1015" fill="none" stroke="rgb(115, 161, 191)" stroke-width="1" d="M1356.5,136.5v20h-141.5V171.5"></path><path id="kity_path_1016" fill="none" stroke="rgb(115, 161, 191)" stroke-width="1" d="M1476.5,193.5v15h-124.5V223.5"></path><path id="kity_path_1017" fill="none" stroke="rgb(115, 161, 191)" stroke-width="1" d="M1464.5,297.5v15h-45V327.5"></path><path id="kity_path_1018" fill="none" stroke="none" display="none"></path><path id="kity_path_1019" fill="none" stroke="none" display="none"></path><path id="kity_path_1020" fill="none" stroke="none" display="none"></path><path id="kity_path_1021" fill="none" stroke="none" display="none"></path><path id="kity_path_1022" fill="none" stroke="none" display="none"></path><path id="kity_path_1023" fill="none" stroke="none" display="none"></path><path id="kity_path_1024" fill="none" stroke="rgb(115, 161, 191)" stroke-width="1" d="M1464.5,297.5v15h34V327.5"></path><path id="kity_path_1025" fill="none" stroke="rgb(115, 161, 191)" stroke-width="1" d="M1570.5,245.5v15h-105.5V275.5"></path><path id="kity_path_1026" fill="none" stroke="rgb(115, 161, 191)" stroke-width="1" d="M1570.5,245.5v15h6V275.5"></path><path id="kity_path_1027" fill="none" stroke="rgb(115, 161, 191)" stroke-width="1" d="M1681.5,297.5v15h-38.5V327.5"></path><path id="kity_path_1028" fill="none" stroke="none" display="none"></path><path id="kity_path_1029" fill="none" stroke="none" display="none"></path><path id="kity_path_1030" fill="none" stroke="rgb(115, 161, 191)" stroke-width="1" d="M1681.5,297.5v15h34.5V327.5"></path><path id="kity_path_1031" fill="none" stroke="rgb(115, 161, 191)" stroke-width="1" d="M1570.5,245.5v15h111.5V275.5"></path><path id="kity_path_1032" fill="none" stroke="rgb(115, 161, 191)" stroke-width="1" d="M1476.5,193.5v15h94V223.5"></path><path id="kity_path_1033" fill="none" stroke="rgb(115, 161, 191)" stroke-width="1" d="M1356.5,136.5v20h119.5V171.5"></path></g><g id="minder_node1"><path id="node_outline1" fill="rgb(115, 161, 191)" stroke="rgb(115, 161, 191)" d="M429.5,20.5h511a5,5,0,0,1,5,5v30a5,5,0,0,1,-5,5h-511a5,5,0,0,1,-5,-5v-30a5,5,0,0,1,5,-5z" stroke-width="3"></path><g id="node_text1" fill="white"><text id="kity_text_22" text-rendering="inherit" font-size="16" dy=".8em" y="29.939998626708984" x="448.5">(!(~+[])+{})[--[~+""][+[]]*[~+[]] + ~~!+[]]+({}+[])[[~!+[]]*~+[]]</text></g></g><g id="kity_g_14" display="none"><path id="kity_path_15" fill="rgba(0, 92, 153, 0.5)" stroke="none" d="M609.5,110.5h20v26h-20z"></path><path id="kity_path_16" fill="none" stroke="rgb(0, 76, 128)" d="M609.5,110.5L609.5,136.5" stroke-width="1"></path></g><g id="minder_node2" opacity="1"><g id="node_expander1" style="cursor: pointer;" display="none"><path id="kity_path_36" fill="white" stroke="gray" d="M1016.5,100.5A6,6,0,1,1,1004.5,100.5A6,6,0,1,1,1016.5,100.5"></path><path id="kity_path_37" fill="none" stroke="gray"></path></g><path id="node_outline2" fill="rgb(238, 243, 246)" stroke="rgb(115, 161, 191)" d="M988.5,107.5h44a3,3,0,0,1,3,3v20a3,3,0,0,1,-3,3h-44a3,3,0,0,1,-3,-3v-20a3,3,0,0,1,3,-3z" stroke-width="1"></path><g id="node_text2" fill="black"><text id="kity_text_33" text-rendering="inherit" font-size="14" dy=".8em" y="111.2599983215332" x="1005.5">+</text></g></g><g id="minder_node3" opacity="1"><g id="node_expander2" style="cursor: pointer;"><path id="kity_path_44" fill="white" stroke="gray" d="M490,103.5A6,6,0,1,1,478,103.5A6,6,0,1,1,490,103.5"></path><path id="kity_path_45" fill="none" stroke="gray" d="M479.5,103.5L488.5,103.5"></path></g><path id="node_outline3" fill="rgb(238, 243, 246)" stroke="rgb(115, 161, 191)" d="M329.5,110.5h309a3,3,0,0,1,3,3v20a3,3,0,0,1,-3,3h-309a3,3,0,0,1,-3,-3v-20a3,3,0,0,1,3,-3z" stroke-width="1"></path><g id="node_text3" fill="black"><text id="kity_text_41" text-rendering="inherit" font-size="14" dy=".8em" y="114.2599983215332" x="346.5">(!(~+[])+{})[--[~+""][+[]]*[~+[]] + ~~!+[]]</text></g></g><g id="minder_node5" opacity="1"><g id="node_expander4" style="cursor: pointer;"><path id="kity_path_60" fill="white" stroke="gray" d="M1362.5,103.5A6,6,0,1,1,1350.5,103.5A6,6,0,1,1,1362.5,103.5"></path><path id="kity_path_61" fill="none" stroke="gray" d="M1352,103.5L1361,103.5"></path></g><path id="node_outline5" fill="rgb(238, 243, 246)" stroke="rgb(115, 161, 191)" d="M1275.5,110.5h162a3,3,0,0,1,3,3v20a3,3,0,0,1,-3,3h-162a3,3,0,0,1,-3,-3v-20a3,3,0,0,1,3,-3z" stroke-width="1"></path><g id="node_text5" fill="black"><text id="kity_text_57" text-rendering="inherit" font-size="14" dy=".8em" y="114.2599983215332" x="1292.5">({}+[])[[~!+[]]*~+[]]</text></g></g><g id="minder_node12"><g id="node_expander11" style="cursor: pointer;" display="none"><path id="kity_path_116" fill="white" stroke="gray" d="M38.5,269.5A6,6,0,1,1,26.5,269.5A6,6,0,1,1,38.5,269.5"></path><path id="kity_path_117" fill="none" stroke="gray"></path></g><path id="node_outline12" fill="none" stroke="none" d="M25.5,275.5h14a5,5,0,0,1,5,5v12a5,5,0,0,1,-5,5h-14a5,5,0,0,1,-5,-5v-12a5,5,0,0,1,5,-5z" stroke-width="3"></path><g id="node_text12" fill="black"><text id="kity_text_113" text-rendering="inherit" font-size="12" dy=".8em" y="278.5800018310547" x="30.5">!</text></g></g><g id="minder_node15"><g id="node_expander14" style="cursor: pointer;" display="none"><path id="kity_path_140" fill="white" stroke="gray" d="M105,321.5A6,6,0,1,1,93,321.5A6,6,0,1,1,105,321.5"></path><path id="kity_path_141" fill="none" stroke="gray"></path></g><path id="node_outline15" fill="none" stroke="none" d="M89.5,327.5h19a5,5,0,0,1,5,5v12a5,5,0,0,1,-5,5h-19a5,5,0,0,1,-5,-5v-12a5,5,0,0,1,5,-5z" stroke-width="3"></path><g id="node_text15" fill="black"><text id="kity_text_137" text-rendering="inherit" font-size="12" dy=".8em" y="330.5800018310547" x="94.5">~</text></g></g><g id="minder_node17"><g id="node_expander16" style="cursor: pointer;" display="none"><path id="kity_path_156" fill="white" stroke="gray" d="M174,373.5A6,6,0,1,1,162,373.5A6,6,0,1,1,174,373.5"></path><path id="kity_path_157" fill="none" stroke="gray"></path></g><path id="node_outline17" fill="none" stroke="none" d="M158.5,379.5h19a5,5,0,0,1,5,5v12a5,5,0,0,1,-5,5h-19a5,5,0,0,1,-5,-5v-12a5,5,0,0,1,5,-5z" stroke-width="3"></path><g id="node_text17" fill="black"><text id="kity_text_153" text-rendering="inherit" font-size="12" dy=".8em" y="382.5800018310547" x="163.5">+</text></g></g><g id="minder_node18"><g id="node_expander17" style="cursor: pointer;" display="none"><path id="kity_path_164" fill="white" stroke="gray" d="M242.5,373.5A6,6,0,1,1,230.5,373.5A6,6,0,1,1,242.5,373.5"></path><path id="kity_path_165" fill="none" stroke="gray"></path></g><path id="node_outline18" fill="none" stroke="none" d="M227.5,379.5h18a5,5,0,0,1,5,5v12a5,5,0,0,1,-5,5h-18a5,5,0,0,1,-5,-5v-12a5,5,0,0,1,5,-5z" stroke-width="3"></path><g id="node_text18" fill="black"><text id="kity_text_161" text-rendering="inherit" font-size="12" dy=".8em" y="382.5800018310547" x="232.5">[]</text></g></g><g id="minder_node16"><g id="node_expander15" style="cursor: pointer;"><path id="kity_path_148" fill="white" stroke="gray" d="M208,321.5A6,6,0,1,1,196,321.5A6,6,0,1,1,208,321.5"></path><path id="kity_path_149" fill="none" stroke="gray" d="M197.5,321.5L206.5,321.5"></path></g><path id="node_outline16" fill="none" stroke="none" d="M188.5,327.5h27a5,5,0,0,1,5,5v12a5,5,0,0,1,-5,5h-27a5,5,0,0,1,-5,-5v-12a5,5,0,0,1,5,-5z" stroke-width="3"></path><g id="node_text16" fill="black"><text id="kity_text_145" text-rendering="inherit" font-size="12" dy=".8em" y="330.5800018310547" x="193.5">+[]</text></g></g><g id="minder_node13"><g id="node_expander12" style="cursor: pointer;"><path id="kity_path_124" fill="white" stroke="gray" d="M158.5,269.5A6,6,0,1,1,146.5,269.5A6,6,0,1,1,158.5,269.5"></path><path id="kity_path_125" fill="none" stroke="gray" d="M148,269.5L157,269.5"></path></g><path id="node_outline13" fill="none" stroke="none" d="M130.5,275.5h44a5,5,0,0,1,5,5v12a5,5,0,0,1,-5,5h-44a5,5,0,0,1,-5,-5v-12a5,5,0,0,1,5,-5z" stroke-width="3"></path><g id="node_text13" fill="black"><text id="kity_text_121" text-rendering="inherit" font-size="12" dy=".8em" y="278.5800018310547" x="135.5">(~+[])</text></g></g><g id="minder_node7"><g id="node_expander6" style="cursor: pointer;"><path id="kity_path_76" fill="white" stroke="gray" d="M105.5,217.5A6,6,0,1,1,93.5,217.5A6,6,0,1,1,105.5,217.5"></path><path id="kity_path_77" fill="none" stroke="gray" d="M95,217.5L104,217.5"></path></g><path id="node_outline7" fill="none" stroke="none" d="M75.5,223.5h48a5,5,0,0,1,5,5v12a5,5,0,0,1,-5,5h-48a5,5,0,0,1,-5,-5v-12a5,5,0,0,1,5,-5z" stroke-width="3"></path><g id="node_text7" fill="black"><text id="kity_text_73" text-rendering="inherit" font-size="12" dy=".8em" y="226.5800018310547" x="80.5">!(~+[])</text></g></g><g id="minder_node10" opacity="1"><g id="node_expander9" style="cursor: pointer;" display="none"><path id="kity_path_100" fill="white" stroke="gray" d="M311,217.5A6,6,0,1,1,299,217.5A6,6,0,1,1,311,217.5"></path><path id="kity_path_101" fill="none" stroke="gray"></path></g><path id="node_outline10" fill="none" stroke="none" d="M295.5,223.5h19a5,5,0,0,1,5,5v12a5,5,0,0,1,-5,5h-19a5,5,0,0,1,-5,-5v-12a5,5,0,0,1,5,-5z" stroke-width="3"></path><g id="node_text10" fill="black"><text id="kity_text_97" text-rendering="inherit" font-size="12" dy=".8em" y="226.5800018310547" x="300.5">+</text></g></g><g id="minder_node11"><g id="node_expander10" style="cursor: pointer;" display="none"><path id="kity_path_108" fill="white" stroke="gray" d="M379.5,217.5A6,6,0,1,1,367.5,217.5A6,6,0,1,1,379.5,217.5"></path><path id="kity_path_109" fill="none" stroke="gray"></path></g><path id="node_outline11" fill="none" stroke="none" d="M364.5,223.5h18a5,5,0,0,1,5,5v12a5,5,0,0,1,-5,5h-18a5,5,0,0,1,-5,-5v-12a5,5,0,0,1,5,-5z" stroke-width="3"></path><g id="node_text11" fill="black"><text id="kity_text_105" text-rendering="inherit" font-size="12" dy=".8em" y="226.5800018310547" x="369.5">{}</text></g></g><g id="minder_node6"><g id="node_expander5" style="cursor: pointer;"><path id="kity_path_68" fill="white" stroke="gray" d="M235,165.5A6,6,0,1,1,223,165.5A6,6,0,1,1,235,165.5"></path><path id="kity_path_69" fill="none" stroke="gray" d="M224.5,165.5L233.5,165.5"></path></g><path id="node_outline6" fill="none" stroke="none" d="M192.5,171.5h73a5,5,0,0,1,5,5v12a5,5,0,0,1,-5,5h-73a5,5,0,0,1,-5,-5v-12a5,5,0,0,1,5,-5z" stroke-width="3"></path><g id="node_text6" fill="black"><text id="kity_text_65" text-rendering="inherit" font-size="12" dy=".8em" y="174.5800018310547" x="197.5">(!(~+[])+{})</text></g></g><g id="minder_node61" opacity="1"><g id="node_expander53" style="cursor: pointer;" display="none"><path id="kity_path_493" fill="white" stroke="gray" d="M446.5,217.5A6,6,0,1,1,434.5,217.5A6,6,0,1,1,446.5,217.5"></path><path id="kity_path_494" fill="none" stroke="gray"></path></g><path id="node_outline54" fill="none" stroke="none" d="M431.5,223.5h18a5,5,0,0,1,5,5v12a5,5,0,0,1,-5,5h-18a5,5,0,0,1,-5,-5v-12a5,5,0,0,1,5,-5z" stroke-width="3"></path><g id="node_text54" fill="black"><text id="kity_text_490" text-rendering="inherit" font-size="12" dy=".8em" y="226.5800018310547" x="436.5">[]</text></g></g><g id="minder_node8" opacity="1"><g id="node_expander7" style="cursor: pointer;"><path id="kity_path_84" fill="white" stroke="gray" d="M855,217.5A6,6,0,1,1,843,217.5A6,6,0,1,1,855,217.5"></path><path id="kity_path_85" fill="none" stroke="gray" d="M844.5,217.5L853.5,217.5"></path></g><path id="node_outline8" fill="none" stroke="none" d="M761.5,223.5h175a5,5,0,0,1,5,5v12a5,5,0,0,1,-5,5h-175a5,5,0,0,1,-5,-5v-12a5,5,0,0,1,5,-5z" stroke-width="3"></path><g id="node_text8" fill="black"><text id="kity_text_81" text-rendering="inherit" font-size="12" dy=".8em" y="226.5800018310547" x="766.5">--[~+""][+[]]*[~+[]]&#xa0;+&#xa0;~~!+[]</text></g></g><g id="minder_node60"><g id="node_expander52" style="cursor: pointer;"><path id="kity_path_463" fill="white" stroke="gray" d="M690,165.5A6,6,0,1,1,678,165.5A6,6,0,1,1,690,165.5"></path><path id="kity_path_464" fill="none" stroke="gray" d="M679.5,165.5L688.5,165.5"></path></g><path id="node_outline53" fill="none" stroke="none" d="M592.5,171.5h183a5,5,0,0,1,5,5v12a5,5,0,0,1,-5,5h-183a5,5,0,0,1,-5,-5v-12a5,5,0,0,1,5,-5z" stroke-width="3"></path><g id="node_text53" fill="black"><text id="kity_text_460" text-rendering="inherit" font-size="12" dy=".8em" y="174.5800018310547" x="597.5">[--[~+""][+[]]*[~+[]] + ~~!+[]]</text></g></g><g id="minder_node35"><g id="node_expander34" style="cursor: pointer;" display="none"><path id="kity_path_300" fill="white" stroke="gray" d="M516.5,373.5A6,6,0,1,1,504.5,373.5A6,6,0,1,1,516.5,373.5"></path><path id="kity_path_301" fill="none" stroke="gray"></path></g><path id="node_outline35" fill="none" stroke="none" d="M500.5,379.5h20a5,5,0,0,1,5,5v12a5,5,0,0,1,-5,5h-20a5,5,0,0,1,-5,-5v-12a5,5,0,0,1,5,-5z" stroke-width="3"></path><g id="node_text35" fill="black"><text id="kity_text_297" text-rendering="inherit" font-size="12" dy=".8em" y="382.5800018310547" x="505.5">--</text></g></g><g id="minder_node54" display="none"><g id="node_expander44" style="cursor: pointer;" display="none"><path id="kity_path_417" fill="white" stroke="gray" d="M559.5,477.5A6,6,0,1,1,547.5,477.5A6,6,0,1,1,559.5,477.5"></path><path id="kity_path_418" fill="none" stroke="gray"></path></g><path id="node_outline45" fill="none" stroke="none" d="M548.5,472.5h18a5,5,0,0,1,5,5v12a5,5,0,0,1,-5,5h-18a5,5,0,0,1,-5,-5v-12a5,5,0,0,1,5,-5z" stroke-width="3"></path><g id="node_text45" fill="black"><text id="kity_text_396" text-rendering="inherit" font-size="12" dy=".8em" y="475.5800018310547" x="553.5">[]</text></g></g><g id="minder_node55" display="none"><g id="node_expander45" style="cursor: pointer;" display="none"><path id="kity_path_420" fill="white" stroke="gray" d="M599.5,477.5A6,6,0,1,1,587.5,477.5A6,6,0,1,1,599.5,477.5"></path><path id="kity_path_421" fill="none" stroke="gray"></path></g><path id="node_outline46" fill="none" stroke="none" d="M588.5,472.5h38a5,5,0,0,1,5,5v12a5,5,0,0,1,-5,5h-38a5,5,0,0,1,-5,-5v-12a5,5,0,0,1,5,-5z" stroke-width="3"></path><g id="node_text46" fill="black"><text id="kity_text_398" text-rendering="inherit" font-size="12" dy=".8em" y="475.5800018310547" x="593.5">~+""</text></g></g><g id="minder_node53"><g id="node_expander46" style="cursor: pointer;"><path id="kity_path_423" fill="white" stroke="gray" d="M599.5,425.5A6,6,0,1,1,587.5,425.5A6,6,0,1,1,599.5,425.5"></path><path id="kity_path_424" fill="none" stroke="gray" d="M589,425.5L598,425.5M593.5,421L593.5,430"></path></g><path id="node_outline47" fill="none" stroke="none" d="M570.5,431.5h46a5,5,0,0,1,5,5v12a5,5,0,0,1,-5,5h-46a5,5,0,0,1,-5,-5v-12a5,5,0,0,1,5,-5z" stroke-width="3"></path><g id="node_text47" fill="black"><text id="kity_text_400" text-rendering="inherit" font-size="12" dy=".8em" y="434.5800018310547" x="575.5">[~+""]</text></g></g><g id="minder_node57" display="none"><g id="node_expander47" style="cursor: pointer;" display="none"><path id="kity_path_426" fill="white" stroke="gray" d="M650.5,477.5A6,6,0,1,1,638.5,477.5A6,6,0,1,1,650.5,477.5"></path><path id="kity_path_427" fill="none" stroke="gray"></path></g><path id="node_outline48" fill="none" stroke="none" d="M639.5,472.5h18a5,5,0,0,1,5,5v12a5,5,0,0,1,-5,5h-18a5,5,0,0,1,-5,-5v-12a5,5,0,0,1,5,-5z" stroke-width="3"></path><g id="node_text48" fill="black"><text id="kity_text_402" text-rendering="inherit" font-size="12" dy=".8em" y="475.5800018310547" x="644.5">[]</text></g></g><g id="minder_node58" display="none"><g id="node_expander48" style="cursor: pointer;" display="none"><path id="kity_path_429" fill="white" stroke="gray" d="M690.5,477.5A6,6,0,1,1,678.5,477.5A6,6,0,1,1,690.5,477.5"></path><path id="kity_path_430" fill="none" stroke="gray"></path></g><path id="node_outline49" fill="none" stroke="none" d="M679.5,472.5h27a5,5,0,0,1,5,5v12a5,5,0,0,1,-5,5h-27a5,5,0,0,1,-5,-5v-12a5,5,0,0,1,5,-5z" stroke-width="3"></path><g id="node_text49" fill="black"><text id="kity_text_404" text-rendering="inherit" font-size="12" dy=".8em" y="475.5800018310547" x="684.5">+[]</text></g></g><g id="minder_node56"><g id="node_expander49" style="cursor: pointer;"><path id="kity_path_432" fill="white" stroke="gray" d="M690,425.5A6,6,0,1,1,678,425.5A6,6,0,1,1,690,425.5"></path><path id="kity_path_433" fill="none" stroke="gray" d="M679.5,425.5L688.5,425.5M684,421L684,430"></path></g><path id="node_outline50" fill="none" stroke="none" d="M666.5,431.5h35a5,5,0,0,1,5,5v12a5,5,0,0,1,-5,5h-35a5,5,0,0,1,-5,-5v-12a5,5,0,0,1,5,-5z" stroke-width="3"></path><g id="node_text50" fill="black"><text id="kity_text_406" text-rendering="inherit" font-size="12" dy=".8em" y="434.5800018310547" x="671.5">[+[]]</text></g></g><g id="minder_node52" opacity="1"><g id="node_expander50" style="cursor: pointer;"><path id="kity_path_435" fill="white" stroke="gray" d="M642,373.5A6,6,0,1,1,630,373.5A6,6,0,1,1,642,373.5"></path><path id="kity_path_436" fill="none" stroke="gray" d="M631.5,373.5L640.5,373.5"></path></g><path id="node_outline51" fill="none" stroke="none" d="M600.5,379.5h71a5,5,0,0,1,5,5v12a5,5,0,0,1,-5,5h-71a5,5,0,0,1,-5,-5v-12a5,5,0,0,1,5,-5z" stroke-width="3"></path><g id="node_text51" fill="black"><text id="kity_text_408" text-rendering="inherit" font-size="12" dy=".8em" y="382.5800018310547" x="605.5">[~+""][+[]]</text></g></g><g id="minder_node31"><g id="node_expander30" style="cursor: pointer;"><path id="kity_path_268" fill="white" stroke="gray" d="M591.5,321.5A6,6,0,1,1,579.5,321.5A6,6,0,1,1,591.5,321.5"></path><path id="kity_path_269" fill="none" stroke="gray" d="M581,321.5L590,321.5"></path></g><path id="node_outline31" fill="none" stroke="none" d="M544.5,327.5h82a5,5,0,0,1,5,5v12a5,5,0,0,1,-5,5h-82a5,5,0,0,1,-5,-5v-12a5,5,0,0,1,5,-5z" stroke-width="3"></path><g id="node_text31" fill="black"><text id="kity_text_265" text-rendering="inherit" font-size="12" dy=".8em" y="330.5800018310547" x="549.5">--[~+""][+[]]</text></g></g><g id="minder_node32"><g id="node_expander31" style="cursor: pointer;" display="none"><path id="kity_path_276" fill="white" stroke="gray" d="M764,321.5A6,6,0,1,1,752,321.5A6,6,0,1,1,764,321.5"></path><path id="kity_path_277" fill="none" stroke="gray"></path></g><path id="node_outline32" fill="none" stroke="none" d="M750.5,327.5h15a5,5,0,0,1,5,5v12a5,5,0,0,1,-5,5h-15a5,5,0,0,1,-5,-5v-12a5,5,0,0,1,5,-5z" stroke-width="3"></path><g id="node_text32" fill="black"><text id="kity_text_273" text-rendering="inherit" font-size="12" dy=".8em" y="330.5800018310547" x="755.5">*</text></g></g><g id="minder_node33"><g id="node_expander32" style="cursor: pointer;" display="none"><path id="kity_path_284" fill="white" stroke="gray" d="M843.5,321.5A6,6,0,1,1,831.5,321.5A6,6,0,1,1,843.5,321.5"></path><path id="kity_path_285" fill="none" stroke="gray" d="M833,321.5L842,321.5"></path></g><path id="node_outline33" fill="none" stroke="none" d="M815.5,327.5h44a5,5,0,0,1,5,5v12a5,5,0,0,1,-5,5h-44a5,5,0,0,1,-5,-5v-12a5,5,0,0,1,5,-5z" stroke-width="3"></path><g id="node_text33" fill="black"><text id="kity_text_281" text-rendering="inherit" font-size="12" dy=".8em" y="330.5800018310547" x="820.5">[~+[]]</text></g></g><g id="minder_node9"><g id="node_expander8" style="cursor: pointer;"><path id="kity_path_92" fill="white" stroke="gray" d="M708,269.5A6,6,0,1,1,696,269.5A6,6,0,1,1,708,269.5"></path><path id="kity_path_93" fill="none" stroke="gray" d="M697.5,269.5L706.5,269.5"></path></g><path id="node_outline9" fill="none" stroke="none" d="M641.5,275.5h121a5,5,0,0,1,5,5v12a5,5,0,0,1,-5,5h-121a5,5,0,0,1,-5,-5v-12a5,5,0,0,1,5,-5z" stroke-width="3"></path><g id="node_text9" fill="black"><text id="kity_text_89" text-rendering="inherit" font-size="12" dy=".8em" y="278.5800018310547" x="646.5">--[~+""][+[]]*[~+[]]</text></g></g><g id="minder_node19"><g id="node_expander18" style="cursor: pointer;" display="none"><path id="kity_path_172" fill="white" stroke="gray" d="M925,269.5A6,6,0,1,1,913,269.5A6,6,0,1,1,925,269.5"></path><path id="kity_path_173" fill="none" stroke="gray"></path></g><path id="node_outline19" fill="none" stroke="none" d="M909.5,275.5h19a5,5,0,0,1,5,5v12a5,5,0,0,1,-5,5h-19a5,5,0,0,1,-5,-5v-12a5,5,0,0,1,5,-5z" stroke-width="3"></path><g id="node_text19" fill="black"><text id="kity_text_169" text-rendering="inherit" font-size="12" dy=".8em" y="278.5800018310547" x="914.5">+</text></g></g><g id="minder_node22"><g id="node_expander21" style="cursor: pointer;" display="none"><path id="kity_path_196" fill="white" stroke="gray" d="M994,321.5A6,6,0,1,1,982,321.5A6,6,0,1,1,994,321.5"></path><path id="kity_path_197" fill="none" stroke="gray"></path></g><path id="node_outline22" fill="none" stroke="none" d="M978.5,327.5h19a5,5,0,0,1,5,5v12a5,5,0,0,1,-5,5h-19a5,5,0,0,1,-5,-5v-12a5,5,0,0,1,5,-5z" stroke-width="3"></path><g id="node_text22" fill="black"><text id="kity_text_193" text-rendering="inherit" font-size="12" dy=".8em" y="330.5800018310547" x="983.5">~</text></g></g><g id="minder_node25" display="none"><g id="node_expander24" style="cursor: pointer;" display="none"><path id="kity_path_220" fill="white" stroke="gray" d="M1033.5,373.5A6,6,0,1,1,1021.5,373.5A6,6,0,1,1,1033.5,373.5"></path><path id="kity_path_221" fill="none" stroke="gray"></path></g><path id="node_outline25" fill="none" stroke="none" d="M1022.5,368.5h19a5,5,0,0,1,5,5v12a5,5,0,0,1,-5,5h-19a5,5,0,0,1,-5,-5v-12a5,5,0,0,1,5,-5z" stroke-width="3"></path><g id="node_text25" fill="black"><text id="kity_text_217" text-rendering="inherit" font-size="12" dy=".8em" y="371.5800018310547" x="1027.5">~</text></g></g><g id="minder_node27" display="none"><g id="node_expander26" style="cursor: pointer;" display="none"><path id="kity_path_236" fill="white" stroke="gray" d="M1033.5,403.5A6,6,0,1,1,1021.5,403.5A6,6,0,1,1,1033.5,403.5"></path><path id="kity_path_237" fill="none" stroke="gray"></path></g><path id="node_outline27" fill="none" stroke="none" d="M1022.5,398.5h14a5,5,0,0,1,5,5v12a5,5,0,0,1,-5,5h-14a5,5,0,0,1,-5,-5v-12a5,5,0,0,1,5,-5z" stroke-width="3"></path><g id="node_text27" fill="black"><text id="kity_text_233" text-rendering="inherit" font-size="12" dy=".8em" y="401.5800018310547" x="1027.5">!</text></g></g><g id="minder_node29" display="none"><g id="node_expander28" style="cursor: pointer;" display="none"><path id="kity_path_252" fill="white" stroke="gray" d="M1033.5,433.5A6,6,0,1,1,1021.5,433.5A6,6,0,1,1,1033.5,433.5"></path><path id="kity_path_253" fill="none" stroke="gray"></path></g><path id="node_outline29" fill="none" stroke="none" d="M1022.5,428.5h19a5,5,0,0,1,5,5v12a5,5,0,0,1,-5,5h-19a5,5,0,0,1,-5,-5v-12a5,5,0,0,1,5,-5z" stroke-width="3"></path><g id="node_text29" fill="black"><text id="kity_text_249" text-rendering="inherit" font-size="12" dy=".8em" y="431.5800018310547" x="1027.5">+</text></g></g><g id="minder_node30" display="none"><g id="node_expander29" style="cursor: pointer;" display="none"><path id="kity_path_260" fill="white" stroke="gray" d="M1073.5,433.5A6,6,0,1,1,1061.5,433.5A6,6,0,1,1,1073.5,433.5"></path><path id="kity_path_261" fill="none" stroke="gray"></path></g><path id="node_outline30" fill="none" stroke="none" d="M1062.5,428.5h18a5,5,0,0,1,5,5v12a5,5,0,0,1,-5,5h-18a5,5,0,0,1,-5,-5v-12a5,5,0,0,1,5,-5z" stroke-width="3"></path><g id="node_text30" fill="black"><text id="kity_text_257" text-rendering="inherit" font-size="12" dy=".8em" y="431.5800018310547" x="1067.5">[]</text></g></g><g id="minder_node28" display="none"><g id="node_expander27" style="cursor: pointer;" display="none"><path id="kity_path_244" fill="white" stroke="gray" d="M1073.5,403.5A6,6,0,1,1,1061.5,403.5A6,6,0,1,1,1073.5,403.5"></path><path id="kity_path_245" fill="none" stroke="gray" d="M1063,403.5L1072,403.5"></path></g><path id="node_outline28" fill="none" stroke="none" d="M1062.5,398.5h50a5,5,0,0,1,5,5v12a5,5,0,0,1,-5,5h-50a5,5,0,0,1,-5,-5v-12a5,5,0,0,1,5,-5z" stroke-width="3"></path><g id="node_text28" fill="black"><text id="kity_text_241" text-rendering="inherit" font-size="12" dy=".8em" y="401.5800018310547" x="1067.5">+[] = 0</text></g></g><g id="minder_node26" display="none"><g id="node_expander25" style="cursor: pointer;" display="none"><path id="kity_path_228" fill="white" stroke="gray" d="M1073.5,373.5A6,6,0,1,1,1061.5,373.5A6,6,0,1,1,1073.5,373.5"></path><path id="kity_path_229" fill="none" stroke="gray" d="M1063,373.5L1072,373.5"></path></g><path id="node_outline26" fill="none" stroke="none" d="M1062.5,368.5h93a5,5,0,0,1,5,5v12a5,5,0,0,1,-5,5h-93a5,5,0,0,1,-5,-5v-12a5,5,0,0,1,5,-5z" stroke-width="3"></path><g id="node_text26" fill="black"><text id="kity_text_225" text-rendering="inherit" font-size="12" dy=".8em" y="371.5800018310547" x="1067.5">!+[] = true = 1</text></g></g><g id="minder_node23"><g id="node_expander22" style="cursor: pointer;"><path id="kity_path_204" fill="white" stroke="gray" d="M1073.5,321.5A6,6,0,1,1,1061.5,321.5A6,6,0,1,1,1073.5,321.5"></path><path id="kity_path_205" fill="none" stroke="gray" d="M1063,321.5L1072,321.5M1067.5,317L1067.5,326"></path></g><path id="node_outline23" fill="none" stroke="none" d="M1047.5,327.5h40a5,5,0,0,1,5,5v12a5,5,0,0,1,-5,5h-40a5,5,0,0,1,-5,-5v-12a5,5,0,0,1,5,-5z" stroke-width="3"></path><g id="node_text23" fill="black"><text id="kity_text_201" text-rendering="inherit" font-size="12" dy=".8em" y="330.5800018310547" x="1052.5">~!+[]</text></g></g><g id="minder_node20"><g id="node_expander19" style="cursor: pointer;"><path id="kity_path_180" fill="white" stroke="gray" d="M1038.5,269.5A6,6,0,1,1,1026.5,269.5A6,6,0,1,1,1038.5,269.5"></path><path id="kity_path_181" fill="none" stroke="gray" d="M1028,269.5L1037,269.5"></path></g><path id="node_outline20" fill="none" stroke="none" d="M1008.5,275.5h48a5,5,0,0,1,5,5v12a5,5,0,0,1,-5,5h-48a5,5,0,0,1,-5,-5v-12a5,5,0,0,1,5,-5z" stroke-width="3"></path><g id="node_text20" fill="black"><text id="kity_text_177" text-rendering="inherit" font-size="12" dy=".8em" y="278.5800018310547" x="1013.5">~~!+[]</text></g></g><g id="minder_node64"><g id="node_expander56" style="cursor: pointer;" display="none"><path id="kity_path_517" fill="white" stroke="gray" d="M1152.5,217.5A6,6,0,1,1,1140.5,217.5A6,6,0,1,1,1152.5,217.5"></path><path id="kity_path_518" fill="none" stroke="gray"></path></g><path id="node_outline57" fill="none" stroke="none" d="M1137.5,223.5h18a5,5,0,0,1,5,5v12a5,5,0,0,1,-5,5h-18a5,5,0,0,1,-5,-5v-12a5,5,0,0,1,5,-5z" stroke-width="3"></path><g id="node_text57" fill="black"><text id="kity_text_514" text-rendering="inherit" font-size="12" dy=".8em" y="226.5800018310547" x="1142.5">{}</text></g></g><g id="minder_node65"><g id="node_expander57" style="cursor: pointer;" display="none"><path id="kity_path_525" fill="white" stroke="gray" d="M1221,217.5A6,6,0,1,1,1209,217.5A6,6,0,1,1,1221,217.5"></path><path id="kity_path_526" fill="none" stroke="gray"></path></g><path id="node_outline58" fill="none" stroke="none" d="M1205.5,223.5h19a5,5,0,0,1,5,5v12a5,5,0,0,1,-5,5h-19a5,5,0,0,1,-5,-5v-12a5,5,0,0,1,5,-5z" stroke-width="3"></path><g id="node_text58" fill="black"><text id="kity_text_522" text-rendering="inherit" font-size="12" dy=".8em" y="226.5800018310547" x="1210.5">+</text></g></g><g id="minder_node66"><g id="node_expander58" style="cursor: pointer;" display="none"><path id="kity_path_533" fill="white" stroke="gray" d="M1289.5,217.5A6,6,0,1,1,1277.5,217.5A6,6,0,1,1,1289.5,217.5"></path><path id="kity_path_534" fill="none" stroke="gray"></path></g><path id="node_outline59" fill="none" stroke="none" d="M1274.5,223.5h18a5,5,0,0,1,5,5v12a5,5,0,0,1,-5,5h-18a5,5,0,0,1,-5,-5v-12a5,5,0,0,1,5,-5z" stroke-width="3"></path><g id="node_text59" fill="black"><text id="kity_text_530" text-rendering="inherit" font-size="12" dy=".8em" y="226.5800018310547" x="1279.5">[]</text></g></g><g id="minder_node62"><g id="node_expander54" style="cursor: pointer;"><path id="kity_path_501" fill="white" stroke="gray" d="M1221,165.5A6,6,0,1,1,1209,165.5A6,6,0,1,1,1221,165.5"></path><path id="kity_path_502" fill="none" stroke="gray" d="M1210.5,165.5L1219.5,165.5"></path></g><path id="node_outline55" fill="none" stroke="none" d="M1193.5,171.5h43a5,5,0,0,1,5,5v12a5,5,0,0,1,-5,5h-43a5,5,0,0,1,-5,-5v-12a5,5,0,0,1,5,-5z" stroke-width="3"></path><g id="node_text55" fill="black"><text id="kity_text_498" text-rendering="inherit" font-size="12" dy=".8em" y="174.5800018310547" x="1198.5">({}+[])</text></g></g><g id="minder_node67" opacity="1"><g id="node_expander59" style="cursor: pointer;" display="none"><path id="kity_path_541" fill="white" stroke="gray" d="M1357.5,217.5A6,6,0,1,1,1345.5,217.5A6,6,0,1,1,1357.5,217.5"></path><path id="kity_path_542" fill="none" stroke="gray"></path></g><path id="node_outline60" fill="none" stroke="none" d="M1342.5,223.5h18a5,5,0,0,1,5,5v12a5,5,0,0,1,-5,5h-18a5,5,0,0,1,-5,-5v-12a5,5,0,0,1,5,-5z" stroke-width="3"></path><g id="node_text60" fill="black"><text id="kity_text_538" text-rendering="inherit" font-size="12" dy=".8em" y="226.5800018310547" x="1347.5">[]</text></g></g><g id="minder_node72"><g id="node_expander64" style="cursor: pointer;" display="none"><path id="kity_path_581" fill="white" stroke="gray" d="M1425.5,321.5A6,6,0,1,1,1413.5,321.5A6,6,0,1,1,1425.5,321.5"></path><path id="kity_path_582" fill="none" stroke="gray"></path></g><path id="node_outline65" fill="none" stroke="none" d="M1410.5,327.5h18a5,5,0,0,1,5,5v12a5,5,0,0,1,-5,5h-18a5,5,0,0,1,-5,-5v-12a5,5,0,0,1,5,-5z" stroke-width="3"></path><g id="node_text65" fill="black"><text id="kity_text_578" text-rendering="inherit" font-size="12" dy=".8em" y="330.5800018310547" x="1415.5">[]</text></g></g><g id="minder_node74" display="none"><g id="node_expander66" style="cursor: pointer;" display="none"><path id="kity_path_597" fill="white" stroke="gray" d="M1464.5,373.5A6,6,0,1,1,1452.5,373.5A6,6,0,1,1,1464.5,373.5"></path><path id="kity_path_598" fill="none" stroke="gray"></path></g><path id="node_outline67" fill="none" stroke="none" d="M1453.5,368.5h19a5,5,0,0,1,5,5v12a5,5,0,0,1,-5,5h-19a5,5,0,0,1,-5,-5v-12a5,5,0,0,1,5,-5z" stroke-width="3"></path><g id="node_text67" fill="black"><text id="kity_text_594" text-rendering="inherit" font-size="12" dy=".8em" y="371.5800018310547" x="1458.5">~</text></g></g><g id="minder_node76" display="none"><g id="node_expander68" style="cursor: pointer;" display="none"><path id="kity_path_613" fill="white" stroke="gray" d="M1464.5,403.5A6,6,0,1,1,1452.5,403.5A6,6,0,1,1,1464.5,403.5"></path><path id="kity_path_614" fill="none" stroke="gray"></path></g><path id="node_outline69" fill="none" stroke="none" d="M1453.5,398.5h14a5,5,0,0,1,5,5v12a5,5,0,0,1,-5,5h-14a5,5,0,0,1,-5,-5v-12a5,5,0,0,1,5,-5z" stroke-width="3"></path><g id="node_text69" fill="black"><text id="kity_text_610" text-rendering="inherit" font-size="12" dy=".8em" y="401.5800018310547" x="1458.5">!</text></g></g><g id="minder_node78" display="none"><g id="node_expander70" style="cursor: pointer;" display="none"><path id="kity_path_629" fill="white" stroke="gray" d="M1464.5,433.5A6,6,0,1,1,1452.5,433.5A6,6,0,1,1,1464.5,433.5"></path><path id="kity_path_630" fill="none" stroke="gray"></path></g><path id="node_outline71" fill="none" stroke="none" d="M1453.5,428.5h19a5,5,0,0,1,5,5v12a5,5,0,0,1,-5,5h-19a5,5,0,0,1,-5,-5v-12a5,5,0,0,1,5,-5z" stroke-width="3"></path><g id="node_text71" fill="black"><text id="kity_text_626" text-rendering="inherit" font-size="12" dy=".8em" y="431.5800018310547" x="1458.5">+</text></g></g><g id="minder_node79" display="none"><g id="node_expander71" style="cursor: pointer;" display="none"><path id="kity_path_637" fill="white" stroke="gray" d="M1504.5,433.5A6,6,0,1,1,1492.5,433.5A6,6,0,1,1,1504.5,433.5"></path><path id="kity_path_638" fill="none" stroke="gray"></path></g><path id="node_outline72" fill="none" stroke="none" d="M1493.5,428.5h18a5,5,0,0,1,5,5v12a5,5,0,0,1,-5,5h-18a5,5,0,0,1,-5,-5v-12a5,5,0,0,1,5,-5z" stroke-width="3"></path><g id="node_text72" fill="black"><text id="kity_text_634" text-rendering="inherit" font-size="12" dy=".8em" y="431.5800018310547" x="1498.5">[]</text></g></g><g id="minder_node77" display="none"><g id="node_expander69" style="cursor: pointer;" display="none"><path id="kity_path_621" fill="white" stroke="gray" d="M1504.5,403.5A6,6,0,1,1,1492.5,403.5A6,6,0,1,1,1504.5,403.5"></path><path id="kity_path_622" fill="none" stroke="gray" d="M1494,403.5L1503,403.5"></path></g><path id="node_outline70" fill="none" stroke="none" d="M1493.5,398.5h50a5,5,0,0,1,5,5v12a5,5,0,0,1,-5,5h-50a5,5,0,0,1,-5,-5v-12a5,5,0,0,1,5,-5z" stroke-width="3"></path><g id="node_text70" fill="black"><text id="kity_text_618" text-rendering="inherit" font-size="12" dy=".8em" y="401.5800018310547" x="1498.5">+[] = 0</text></g></g><g id="minder_node75" display="none"><g id="node_expander67" style="cursor: pointer;" display="none"><path id="kity_path_605" fill="white" stroke="gray" d="M1504.5,373.5A6,6,0,1,1,1492.5,373.5A6,6,0,1,1,1504.5,373.5"></path><path id="kity_path_606" fill="none" stroke="gray" d="M1494,373.5L1503,373.5"></path></g><path id="node_outline68" fill="none" stroke="none" d="M1493.5,368.5h93a5,5,0,0,1,5,5v12a5,5,0,0,1,-5,5h-93a5,5,0,0,1,-5,-5v-12a5,5,0,0,1,5,-5z" stroke-width="3"></path><g id="node_text68" fill="black"><text id="kity_text_602" text-rendering="inherit" font-size="12" dy=".8em" y="371.5800018310547" x="1498.5">!+[] = true = 1</text></g></g><g id="minder_node73"><g id="node_expander65" style="cursor: pointer;"><path id="kity_path_589" fill="white" stroke="gray" d="M1504.5,321.5A6,6,0,1,1,1492.5,321.5A6,6,0,1,1,1504.5,321.5"></path><path id="kity_path_590" fill="none" stroke="gray" d="M1494,321.5L1503,321.5M1498.5,317L1498.5,326"></path></g><path id="node_outline66" fill="none" stroke="none" d="M1478.5,327.5h40a5,5,0,0,1,5,5v12a5,5,0,0,1,-5,5h-40a5,5,0,0,1,-5,-5v-12a5,5,0,0,1,5,-5z" stroke-width="3"></path><g id="node_text66" fill="black"><text id="kity_text_586" text-rendering="inherit" font-size="12" dy=".8em" y="330.5800018310547" x="1483.5">~!+[]</text></g></g><g id="minder_node69"><g id="node_expander61" style="cursor: pointer;"><path id="kity_path_557" fill="white" stroke="gray" d="M1470.5,269.5A6,6,0,1,1,1458.5,269.5A6,6,0,1,1,1470.5,269.5"></path><path id="kity_path_558" fill="none" stroke="gray" d="M1460,269.5L1469,269.5"></path></g><path id="node_outline62" fill="none" stroke="none" d="M1440.5,275.5h48a5,5,0,0,1,5,5v12a5,5,0,0,1,-5,5h-48a5,5,0,0,1,-5,-5v-12a5,5,0,0,1,5,-5z" stroke-width="3"></path><g id="node_text62" fill="black"><text id="kity_text_554" text-rendering="inherit" font-size="12" dy=".8em" y="278.5800018310547" x="1445.5">[~!+[]]</text></g></g><g id="minder_node70"><g id="node_expander62" style="cursor: pointer;" display="none"><path id="kity_path_565" fill="white" stroke="gray" d="M1582,269.5A6,6,0,1,1,1570,269.5A6,6,0,1,1,1582,269.5"></path><path id="kity_path_566" fill="none" stroke="gray"></path></g><path id="node_outline63" fill="none" stroke="none" d="M1568.5,275.5h15a5,5,0,0,1,5,5v12a5,5,0,0,1,-5,5h-15a5,5,0,0,1,-5,-5v-12a5,5,0,0,1,5,-5z" stroke-width="3"></path><g id="node_text63" fill="black"><text id="kity_text_562" text-rendering="inherit" font-size="12" dy=".8em" y="278.5800018310547" x="1573.5">*</text></g></g><g id="minder_node80"><g id="node_expander72" style="cursor: pointer;" display="none"><path id="kity_path_645" fill="white" stroke="gray" d="M1649,321.5A6,6,0,1,1,1637,321.5A6,6,0,1,1,1649,321.5"></path><path id="kity_path_646" fill="none" stroke="gray"></path></g><path id="node_outline73" fill="none" stroke="none" d="M1633.5,327.5h19a5,5,0,0,1,5,5v12a5,5,0,0,1,-5,5h-19a5,5,0,0,1,-5,-5v-12a5,5,0,0,1,5,-5z" stroke-width="3"></path><g id="node_text73" fill="black"><text id="kity_text_642" text-rendering="inherit" font-size="12" dy=".8em" y="330.5800018310547" x="1638.5">~</text></g></g><g id="minder_node82" display="none"><g id="node_expander74" style="cursor: pointer;" display="none"><path id="kity_path_661" fill="white" stroke="gray" d="M1682.5,373.5A6,6,0,1,1,1670.5,373.5A6,6,0,1,1,1682.5,373.5"></path><path id="kity_path_662" fill="none" stroke="gray"></path></g><path id="node_outline75" fill="none" stroke="none" d="M1671.5,368.5h19a5,5,0,0,1,5,5v12a5,5,0,0,1,-5,5h-19a5,5,0,0,1,-5,-5v-12a5,5,0,0,1,5,-5z" stroke-width="3"></path><g id="node_text75" fill="black"><text id="kity_text_658" text-rendering="inherit" font-size="12" dy=".8em" y="371.5800018310547" x="1676.5">+</text></g></g><g id="minder_node83" display="none"><g id="node_expander75" style="cursor: pointer;" display="none"><path id="kity_path_669" fill="white" stroke="gray" d="M1722.5,373.5A6,6,0,1,1,1710.5,373.5A6,6,0,1,1,1722.5,373.5"></path><path id="kity_path_670" fill="none" stroke="gray"></path></g><path id="node_outline76" fill="none" stroke="none" d="M1711.5,368.5h18a5,5,0,0,1,5,5v12a5,5,0,0,1,-5,5h-18a5,5,0,0,1,-5,-5v-12a5,5,0,0,1,5,-5z" stroke-width="3"></path><g id="node_text76" fill="black"><text id="kity_text_666" text-rendering="inherit" font-size="12" dy=".8em" y="371.5800018310547" x="1716.5">[]</text></g></g><g id="minder_node81"><g id="node_expander73" style="cursor: pointer;"><path id="kity_path_653" fill="white" stroke="gray" d="M1722,321.5A6,6,0,1,1,1710,321.5A6,6,0,1,1,1722,321.5"></path><path id="kity_path_654" fill="none" stroke="gray" d="M1711.5,321.5L1720.5,321.5M1716,317L1716,326"></path></g><path id="node_outline74" fill="none" stroke="none" d="M1702.5,327.5h27a5,5,0,0,1,5,5v12a5,5,0,0,1,-5,5h-27a5,5,0,0,1,-5,-5v-12a5,5,0,0,1,5,-5z" stroke-width="3"></path><g id="node_text74" fill="black"><text id="kity_text_650" text-rendering="inherit" font-size="12" dy=".8em" y="330.5800018310547" x="1707.5">+[]</text></g></g><g id="minder_node71"><g id="node_expander63" style="cursor: pointer;"><path id="kity_path_573" fill="white" stroke="gray" d="M1687.5,269.5A6,6,0,1,1,1675.5,269.5A6,6,0,1,1,1687.5,269.5"></path><path id="kity_path_574" fill="none" stroke="gray" d="M1677,269.5L1686,269.5"></path></g><path id="node_outline64" fill="none" stroke="none" d="M1663.5,275.5h36a5,5,0,0,1,5,5v12a5,5,0,0,1,-5,5h-36a5,5,0,0,1,-5,-5v-12a5,5,0,0,1,5,-5z" stroke-width="3"></path><g id="node_text64" fill="black"><text id="kity_text_570" text-rendering="inherit" font-size="12" dy=".8em" y="278.5800018310547" x="1668.5">~+[] </text></g></g><g id="minder_node68" opacity="1"><g id="node_expander60" style="cursor: pointer;"><path id="kity_path_549" fill="white" stroke="gray" d="M1576,217.5A6,6,0,1,1,1564,217.5A6,6,0,1,1,1576,217.5"></path><path id="kity_path_550" fill="none" stroke="gray" d="M1565.5,217.5L1574.5,217.5"></path></g><path id="node_outline61" fill="none" stroke="none" d="M1530.5,223.5h79a5,5,0,0,1,5,5v12a5,5,0,0,1,-5,5h-79a5,5,0,0,1,-5,-5v-12a5,5,0,0,1,5,-5z" stroke-width="3"></path><g id="node_text61" fill="black"><text id="kity_text_546" text-rendering="inherit" font-size="12" dy=".8em" y="226.5800018310547" x="1535.5">[~!+[]]*~+[]</text></g></g><g id="minder_node63" opacity="1"><g id="node_expander55" style="cursor: pointer;"><path id="kity_path_509" fill="white" stroke="gray" d="M1482,165.5A6,6,0,1,1,1470,165.5A6,6,0,1,1,1482,165.5"></path><path id="kity_path_510" fill="none" stroke="gray" d="M1471.5,165.5L1480.5,165.5"></path></g><path id="node_outline56" fill="none" stroke="none" d="M1432.5,171.5h87a5,5,0,0,1,5,5v12a5,5,0,0,1,-5,5h-87a5,5,0,0,1,-5,-5v-12a5,5,0,0,1,5,-5z" stroke-width="3"></path><g id="node_text56" fill="black"><text id="kity_text_506" text-rendering="inherit" font-size="12" dy=".8em" y="174.5800018310547" x="1437.5">[[~!+[]]*~+[]]</text></g></g><g id="kity_g_12" display="none"><path id="kity_path_13" fill="none" stroke="rgb(66, 94, 112)" d="M258.5,110.5h343a3,3,0,0,1,3,3v20a3,3,0,0,1,-3,3h-343a3,3,0,0,1,-3,-3v-20a3,3,0,0,1,3,-3z" stroke-width="5"></path></g></g></g></svg>